<svg class="main-svg" xmlns="http://www.w3.org/2000/svg" xmlns:xlink="http://www.w3.org/1999/xlink" width="700" height="450" style="" viewBox="0 0 700 450"><rect x="0" y="0" width="700" height="450" style="fill: rgb(255, 255, 255); fill-opacity: 1;"/><defs id="defs-adc5ff"><g class="clips"><clipPath id="clipadc5ffxyplot" class="plotclip"><rect width="548" height="330"/></clipPath><clipPath class="axesclip" id="clipadc5ffx"><rect x="60" y="0" width="548" height="450"/></clipPath><clipPath class="axesclip" id="clipadc5ffy"><rect x="0" y="60" width="700" height="330"/></clipPath><clipPath class="axesclip" id="clipadc5ffxy"><rect x="60" y="60" width="548" height="330"/></clipPath></g><g class="gradients"/></defs><g class="bglayer"/><g class="layer-below"><g class="imagelayer"/><g class="shapelayer"/></g><g class="cartesianlayer"><g class="subplot xy"><g class="layer-subplot"><g class="shapelayer"/><g class="imagelayer"/></g><g class="gridlayer"><g class="x"><path class="xgrid crisp" transform="translate(233.62,0)" d="M0,60v330" style="stroke: rgb(238, 238, 238); stroke-opacity: 1; stroke-width: 1px;"/><path class="xgrid crisp" transform="translate(407.23,0)" d="M0,60v330" style="stroke: rgb(238, 238, 238); stroke-opacity: 1; stroke-width: 1px;"/><path class="xgrid crisp" transform="translate(580.85,0)" d="M0,60v330" style="stroke: rgb(238, 238, 238); stroke-opacity: 1; stroke-width: 1px;"/></g><g class="y"><path class="ygrid crisp" transform="translate(0,328.34)" d="M60,0h548" style="stroke: rgb(238, 238, 238); stroke-opacity: 1; stroke-width: 1px;"/><path class="ygrid crisp" transform="translate(0,275.57)" d="M60,0h548" style="stroke: rgb(238, 238, 238); stroke-opacity: 1; stroke-width: 1px;"/><path class="ygrid crisp" transform="translate(0,222.8)" d="M60,0h548" style="stroke: rgb(238, 238, 238); stroke-opacity: 1; stroke-width: 1px;"/><path class="ygrid crisp" transform="translate(0,170.01999999999998)" d="M60,0h548" style="stroke: rgb(238, 238, 238); stroke-opacity: 1; stroke-width: 1px;"/><path class="ygrid crisp" transform="translate(0,117.25)" d="M60,0h548" style="stroke: rgb(238, 238, 238); stroke-opacity: 1; stroke-width: 1px;"/><path class="ygrid crisp" transform="translate(0,64.48)" d="M60,0h548" style="stroke: rgb(238, 238, 238); stroke-opacity: 1; stroke-width: 1px;"/></g></g><g class="zerolinelayer"><path class="xzl zl crisp" transform="translate(60,0)" d="M0,60v330" style="stroke: rgb(68, 68, 68); stroke-opacity: 1; stroke-width: 1px;"/><path class="yzl zl crisp" transform="translate(0,381.11)" d="M60,0h548" style="stroke: rgb(68, 68, 68); stroke-opacity: 1; stroke-width: 1px;"/></g><path class="xlines-below"/><path class="ylines-below"/><g class="overlines-below"/><g class="xaxislayer-below"/><g class="yaxislayer-below"/><g class="overaxes-below"/><g class="plot" transform="translate(60, 60)" clip-path="url(#clipadc5ffxyplot)"><g class="scatterlayer mlayer"><g class="trace scatter traced20a6f" style="stroke-miterlimit: 2; opacity: 1;"><g class="fills"/><g class="errorbars"/><g class="lines"><path class="js-line" style="vector-effect: non-scaling-stroke; fill: none; stroke: rgb(31, 119, 180); stroke-opacity: 1; stroke-width: 2px; opacity: 1;" d="M0,16.5L0.9,224.7L0.97,216.58L1.04,210.81L1.18,257.28L1.25,262.72L1.53,260L1.74,290.88L2.15,279.09L2.22,282.83L2.29,279.41L2.5,297.82L2.78,285.44L2.85,299.84L3.06,282.26L3.19,300.33L3.61,290.28L3.68,296.37L3.89,287.76L4.44,301.46L4.51,291.29L5.21,287.41L5.28,305.63L5.35,301.99L5.83,291.68L6.18,297.69L6.25,301.18L6.53,304.11L6.88,290.75L7.08,298.71L7.15,303.1L7.22,293.98L7.78,305.33L7.92,294.13L7.99,294.75L8.19,304.94L8.47,298.42L8.54,282.8L8.68,305.2L9.31,300.21L9.38,291.21L9.86,307.19L10.14,306.89L10.21,303.45L10.56,305.36L11.11,292.49L11.18,300.34L11.46,294.43L11.74,304.15L11.81,305.72L12.15,296.4L12.57,298.79L12.64,305.39L12.78,305.57L13.33,297.9L13.4,300.21L13.47,304.18L13.75,295.35L14.03,308.19L14.31,296.23L14.38,301.65L14.51,307.38L15.07,290.72L15.14,307.29L15.83,296.03L16.04,298.94L16.11,302.59L16.39,305.23L16.67,300.63L16.74,299.26L17.15,307.25L17.29,302.36L17.36,301.24L17.43,301.46L17.5,305.64L17.71,296.53L17.99,307.54L18.26,303.01L18.33,303.84L18.47,303.32L18.54,306.18L18.61,297.05L19.03,307.62L19.44,304.35L19.51,304.96L19.58,298.34L20,307.7L20.28,299.43L20.35,301.71L20.56,294.43L20.9,305.8L20.97,300.28L21.04,293.06L21.11,305.35L21.81,305.1L21.88,306.69L22.01,307.18L22.57,297.22L22.64,303.59L22.71,304.53L22.78,304.8L22.85,298.76L23.26,306.67L23.47,291.88L23.61,303.19L23.68,301.58L23.96,305.47L24.03,299.85L24.45,305.2L24.51,304.15L24.65,305.81L24.86,298.59L24.93,299.45L25,297.11L25.28,296.29L25.63,308.66L25.7,301.6L25.76,297.3L25.9,308.26L26.53,301.26L26.6,303.65L26.74,302.22L27.01,306.48L27.08,298.53L27.36,306.32L27.43,297.53L27.85,302.12L27.92,304.76L27.99,305.41L28.06,303.11L28.4,303.91L28.47,302.45L28.68,299.66L28.75,306.58L28.82,289.92L29.1,309.53L29.65,304.86L29.72,303.42L29.79,303.9L29.86,292.69L30.7,309.11L30.76,299.96L31.04,296.63L31.39,307.9L31.46,302.52L31.53,298.29L31.74,309.26L32.36,305.42L32.43,300.39L32.92,307.95L33.13,296.42L33.2,304.35L33.26,303.22L33.33,303.86L33.4,297.08L33.61,309.46L34.17,309.25L34.24,304.54L34.45,306.54L34.72,299.92L35,302.81L35.07,307.11L35.21,301.45L35.76,303.85L35.83,306.73L35.97,301.15L36.11,307.36L36.6,303.95L36.67,304.23L36.88,301.36L36.95,305.64L37.36,309.07L37.5,303.63L37.57,298.52L38.06,295.63L38.33,307.72L38.4,304.64L38.82,301.87L38.96,307.31L39.03,305.32L39.1,300.2L39.58,309.66L39.93,307.14L40,299.49L40.83,307.6L40.9,307.65L41.04,308.81L41.46,299.55L41.67,305.09L41.74,305.22L41.88,302.69L41.95,305.49L42.01,308.95L42.36,300.95L42.78,304.25L42.85,304.76L43.4,294.58L43.47,307.12L43.61,302.07L43.68,308.15L44.1,300.44L44.52,301.68L44.58,306.52L44.93,308.32L45.14,298.94L45.35,302.68L45.42,300.63L45.9,307.4L46.11,303.17L46.18,300.22L46.6,298.23L47.02,309.43L47.08,303.57L47.43,306.91L47.57,298.81L47.78,303.08L47.85,289.4L48.4,307.93L48.68,301.07L48.75,306.25L49.17,308.89L49.52,301.15L49.58,309.73L50.07,295.17L50.35,299.14L50.42,308.27L50.9,309.33L51.04,301.59L51.11,306.16L51.18,305.82L51.25,301.86L51.53,310.91L51.88,305.89L51.95,305.16L52.02,310.77L52.08,297.4L52.64,300.83L52.71,305.9L53.33,308.63L53.4,299L53.47,303.93L53.54,306.2L53.61,306.03L53.68,302.77L53.75,309.1L54.03,300.75L54.45,308.9L54.52,303.16L54.93,311.09L55.07,300.99L55.28,306.47L55.35,305.23L55.42,308.24L55.7,301.73L56.04,303.31L56.11,305.13L56.25,300.13L56.32,296.69L56.53,307.39L57.15,305.82L57.22,303.35L57.36,306.29L57.64,305.35L57.71,300.75L57.85,309.77L58.2,300.18L58.54,308.45L58.61,305.58L59.1,298.94L59.17,308.15L59.24,303.73L59.31,308.52L59.38,300.26L60,308.19L60.07,307.92L60.49,298.23L60.83,306.82L60.9,307.59L60.97,307.94L61.04,299.81L61.11,300.01L61.18,304.9L61.32,309.26L61.39,303.91L61.81,304.75L61.88,299.17L62.02,298.82L62.08,312.36L62.64,305.7L62.71,308.82L63.2,301.12L63.47,302.21L63.54,307.43L63.61,300.67L64.17,309.17L64.31,304.8L64.38,306.1L64.52,303.68L64.65,307.74L65.07,304.96L65.14,308.26L65.77,309.47L65.97,300.72L66.04,305.28L66.25,301.23L66.39,309.39L66.74,304.87L66.81,305.45L67.22,308.44L67.43,298.78L67.5,301.29L67.57,305.74L67.92,307.78L68.27,298.82L68.34,302.03L68.4,306.01L68.89,303.56L68.96,308.86L69.03,308.45L69.79,300.6L70,304.23L70.07,307.04L70.14,300.49L70.35,308.9L70.77,304.25L70.84,306.46L71.25,308.23L71.53,301.79L71.6,304.25L71.67,304.06L72.09,308.29L72.43,299.9L72.5,302.21L72.78,308.45L73.4,306.48L73.47,306L73.68,307.33L73.89,302.84L73.96,308.26L74.31,309.56L74.79,297.4L74.86,306.44L75.07,309.7L75.56,299.76L75.63,303.3L75.7,308.7L75.9,308.92L76.11,301.08L76.6,303.11L76.67,303.14L76.74,309.62L76.88,299.05L77.36,304.52L77.43,297.98L78.06,307.86L78.2,307.7L78.27,306.12L78.47,300.34L78.61,306.8L79.03,303.26L79.1,305.07L79.52,309.59L79.65,300.06L79.72,301.48L79.79,308.11L80.21,308.43L80.7,297.41L80.77,307.6L81.04,308.44L81.25,300L81.46,305.27L81.53,308.73L81.6,310.19L81.88,303.38L82.02,305.29L82.09,304.58L82.36,298.53L82.64,309.34L82.78,306.4L82.85,307.72L82.92,303.47L83.47,309.49L83.61,305.81L83.68,308.15L83.75,297.57L83.96,309.47L84.38,305.45L84.45,308.15L84.59,301.11L85.21,304.77L85.28,303.47L85.49,301.29L85.56,307.38L85.7,305.94L85.77,308.59L86.11,298.18L86.6,302.78L86.67,306.16L87.29,310.36L87.36,296.27L87.43,308.96L87.5,309.22L87.57,299.31L88.34,308.41L88.41,306.57L88.47,311.49L89.03,300.04L89.1,308.16L89.17,304.8L89.38,301.14L89.66,309.67L89.86,305.66L89.93,305.15L90,304.82L90.07,307.53L90.14,309.87L91.04,299L91.11,303.45L91.39,300.89L91.67,311.42L91.74,300.18L92.02,299.66L92.57,307.95L92.64,305.05L92.85,302.19L93.2,308.9L93.34,308.56L93.41,299.89L93.89,308.18L94.17,304.85L94.24,302.55L94.31,301.73L94.45,307.56L94.52,308.26L94.66,302.76L95.14,310.51L95.21,301.55L95.35,308.22L95.91,299.43L95.97,305.41L96.04,301.82L96.88,310.1L96.95,308.41L97.02,303.89L97.22,300.3L97.36,307.77L97.57,306.5L97.64,306.99L97.92,310.54L97.99,296.46L98.41,305.1L98.47,302.49L98.61,313.5L99.31,309.97L99.38,299.68L99.45,297.15L99.79,310.82L100,299.3L100.07,304.98L100.21,308.35L100.28,299.52L100.35,298.02L100.56,306.93L100.84,301.11L100.91,307.23L100.97,307.69L101.04,302.98L101.32,305.01L101.39,301.58L101.74,311.09L102.16,304.67L102.22,305.37L102.78,300.15L102.92,309.72L102.99,304.92L103.2,306.87L103.27,299.73L103.47,302.7L103.54,306.94L103.96,299.96L104.1,311.56L104.17,308.53L104.24,303.26L104.38,304.34L104.45,306.79L104.59,302.94L105,310.21L105.07,303.62L105.14,303.9L105.21,309.06L105.35,301.14L105.91,309.59L105.97,308.59L106.25,300.98L106.32,309.7L106.81,303.23L106.88,309.96L107.02,304.14L107.64,306.02L107.71,308.35L107.85,301.47L108.41,309.61L108.47,308.69L108.82,300.01L108.89,309.67L109.1,306.81L109.17,306.63L109.38,299.41L109.79,308.61L109.86,308.35L109.93,302.55L110.14,301.57L110.49,308.57L110.7,306.22L110.77,305.79L110.98,301.92L111.39,310.33L111.46,302.71L111.53,298.19L111.81,309L112.16,304.91L112.23,305.44L112.5,308.98L112.78,298.9L112.99,304.84L113.06,309.71L113.41,300.59L113.82,302.67L113.89,306.4L114.03,308.59L114.1,306.19L114.17,302.37L114.38,310.38L114.45,297.04L115.21,311.3L115.28,300.63L115.35,309.8L115.84,299.4L116.04,306.5L116.11,304.5L116.53,310.18L116.6,302.51L116.81,305.9L116.88,303.16L116.95,302.59L117.23,305.8L117.29,302.92L117.36,306.88L117.43,311.58L117.57,302.16L118.06,308.38L118.13,307.79L118.54,302.37L118.75,308.79L118.89,303.46L118.96,306.96L119.1,305.27L119.31,307.05L119.38,295.44L119.45,309.02L120.14,304.94L120.21,308.66L120.28,300.52L120.42,308.91L120.91,302.63L120.98,306.73L121.04,298.62L121.67,308.62L121.74,309.13L122.43,302.55L122.5,305.37L122.57,310.72L122.99,302.05L123.34,304.67L123.41,304.92L123.54,303.22L123.75,308.06L123.82,305.39L123.89,303.58L124.03,298.09L124.66,310.1L124.73,307.38L124.79,301.36L124.93,300.5L125.28,308.26L125.49,305.97L125.56,301.72L125.7,308.62L126.11,301.61L126.32,304.46L126.39,306.71L126.6,300.12L126.88,307.54L127.09,306.78L127.16,305.79L127.36,301.5L127.5,308.75L127.57,299.4L127.92,308.36L127.99,305.56L128.06,296.91L128.54,308.24L128.75,305.29L128.82,297.29L129.24,309.33L129.59,303.68L129.66,304.77L130.07,309.16L130.21,299.95L130.28,303.3L130.35,308.05L130.49,300.62L130.77,311L131.11,306.27L131.18,308.74L131.74,311.21L131.88,301.19L131.95,307.04L132.02,306L132.16,309.63L132.57,302.25L132.71,305.05L132.78,302.54L133.06,301.89L133.55,310.24L133.61,304.29L133.75,302.38L133.82,310.09L134.31,306.07L134.38,300.17L134.45,309.31L134.52,297.9L135.14,305.94L135.21,308.64L135.42,294.71L135.91,306.34L135.98,307.81L136.32,298.38L136.6,306.98L136.67,312.03L137.36,300.91L137.43,309L137.5,307.69L137.64,300.94L137.85,305.42L137.92,308.62L138.2,310.35L138.34,304.33L138.68,305.02L138.75,308.14L138.89,302.21L139.24,308.54L139.31,305.11L139.38,308.06L139.59,309.1L140.14,300.62L140.21,306.03L140.42,309.54L140.77,307.86L140.84,303.13L141.05,309.85L141.18,302.58L141.6,306.05L141.67,302.31L141.81,309.52L141.95,294.27L142.3,301.83L142.36,307.45L142.92,300.74L143.13,301.76L143.2,305.8L143.55,308.48L143.82,297.58L143.89,305.3L143.96,308.59L144.17,302.28L144.38,308.65L144.66,306.55L144.73,309.09L145,300.19L145.28,305.07L145.35,309.07L145.56,310.26L145.91,302.21L146.11,306.88L146.18,305.76L146.53,296.96L146.81,307.54L146.95,303.29L147.02,304.5L147.36,302.76L147.43,311.55L147.78,308.52L147.85,304.65L147.99,311.08L148.27,299.88L148.34,309.24L148.89,301.97L149.03,306.97L149.1,308.53L149.24,299.64L149.59,309.04L149.73,304.53L149.8,306.48L150.14,304.24L150.21,310.79L150.49,305.51L150.56,309.62L150.77,310.19L150.91,302.05L151.32,303.85L151.39,306.83L151.53,307.31L152.02,302.22L152.09,306.69L152.16,306.71L152.43,298.63L152.5,310.05L152.85,302.11L152.92,308.43L153.2,303.07L153.48,309.19L153.75,305.85L153.82,308.33L154.52,299.52L154.59,307.26L155.21,307.41L155.42,300.67L155.49,309.63L155.91,299.7L156.25,306.83L156.32,310.47L156.6,301.88L156.67,311.43L157.16,306.58L157.23,309.99L157.64,303.51L158.06,305.41L158.13,305.45L158.41,303.3L158.68,310.24L158.96,309.18L159.03,309.8L159.31,301.67L159.8,307.69L159.87,306.68L160.14,308.97L160.21,301.1L160.56,305.36L160.63,307.29L160.7,308.73L160.77,298.09L161.39,307.97L161.46,308.8L161.53,309.13L161.6,302.89L161.74,298.62L162.3,309.22L162.37,304.44L162.43,307.02L162.57,300.99L162.64,305.52L162.71,309.33L162.78,303.3L163.48,306.89L163.55,307.06L163.89,301.03L163.96,311.08L164.31,302.31L164.38,306.15L164.45,310.01L165,302.43L165.14,308.9L165.21,309.06L165.84,299.61L165.91,309.62L165.98,300.48L166.05,308.2L166.18,309.08L166.25,301.45L166.53,308.21L166.6,311.25L166.88,304.27L167.02,306.34L167.09,292.91L167.85,309.82L167.92,304.7L168.41,302.69L168.68,309.91L168.75,305.03L169.1,304.69L169.59,310.46L169.66,306.81L169.93,308.26L170.21,299.83L170.28,307.55L170.35,308.87L170.63,300.84L170.7,309.14L170.98,305.58L171.05,305.48L171.25,304.2L171.39,309.44L171.74,306.53L171.81,305.42L172.02,309.15L172.09,303.34L172.57,308.87L172.64,305.05L172.85,309.63L173.13,300.99L173.41,306L173.48,307.25L173.68,303.45L173.96,309.27L174.1,307.36L174.17,300.93L174.38,309.16L174.8,300.88L174.87,301.71L174.93,300.92L175,309.98L175.07,302.49L175.77,302.61L175.84,310.19L176.46,302.64L176.6,306.43L176.67,310.9L177.44,303.55L177.5,305.48L177.57,310.72L177.64,310.23L177.71,301.07L177.99,299.08L178.2,310.29L178.48,304.73L178.55,306.53L178.62,307.01L178.69,306.72L178.75,301.41L179.24,309.13L179.52,307.45L179.59,305.32L179.8,303.55L179.87,309.07L179.94,305.9L180,300.63L180.28,308.73L180.7,304.41L180.77,300.38L180.84,310.77L181.53,303.15L181.6,304.97L182.02,310.52L182.23,302.23L182.3,305.42L182.37,309.37L182.5,309.7L182.78,305.1L183.06,307.69L183.13,310.19L183.55,301.81L183.89,308.23L183.96,307.46L184.17,309.37L184.24,304.31L184.73,306.08L184.8,310.18L185.14,300.28L185.56,307.26L185.63,305.74L186.19,309.26L186.25,304.45L186.32,307.16L186.39,306.05L186.95,308.15L187.16,299.05L187.23,304.37L187.3,306L187.85,299.44L187.99,308.64L188.06,309.49L188.13,309.13L188.2,302.84L188.48,310.78L188.69,307.76L188.75,293.19L189.24,311.29L189.59,309.09L189.66,300.07L189.73,310.86L190.42,309.64L190.49,303.32L190.77,301.46L191.05,308.73L191.25,307.55L191.32,302L191.39,312.7L191.6,294.55L192.02,302.35L192.09,302.97L192.71,301.2L192.92,309.14L192.99,306.53L193.13,305.65L193.27,308.67L193.62,307.55L193.69,300.8L193.89,311.61L194.17,299.18L194.52,309.81L194.59,304.02L194.73,308.2L194.8,302.77L195.07,307.39L195.14,307.18L195.28,309.51L195.7,298.58L195.91,305.98L195.98,308.06L196.05,310.98L196.32,303.66L196.74,309.16L196.81,307.23L196.88,310.66L197.02,301.55L197.44,304.25L197.51,302.68L197.92,300.33L198.2,309.18L198.27,303.31L198.34,310.02L198.41,298.05L199.03,307.54L199.1,301.81L199.24,310.17L199.52,298.53L199.94,309.16L200.01,300L200.07,310.53L200.21,298.72L200.77,303.75L200.84,305.02L200.91,309.82L201.39,297.37L201.53,307.31L201.6,304.67L202.02,299.54L202.16,308.62L202.23,307.65L202.3,309.63L202.44,297.19L203.06,307.22L203.13,303.08L203.76,302.91L204.03,309.49L204.1,308.62L204.24,305.02L204.38,309.06L204.45,304.39L204.59,304.14L204.66,306.28L204.73,299.58L205.63,311.15L205.7,306.26L205.77,297.91L205.98,310.04L206.46,304.1L206.53,308L207.02,308.37L207.23,301.36L207.3,308.05L207.37,308.53L207.44,306.21L207.51,307.78L207.57,302.87L207.64,309.49L208.2,301.69L208.27,308.51L208.34,303.79L208.41,303.27L208.55,305.96L208.62,303.99L208.69,307.32L208.96,299.87L209.1,304.45L209.17,309.96L209.38,311.07L209.87,303.5L209.94,306.24L210.01,306.26L210.07,300.95L210.42,308.55L210.7,308.08L210.77,308.77L211.05,310.55L211.53,302.83L211.6,307.7L211.81,302.27L212.23,309.69L212.3,310.14L212.51,301.96L213.13,303.32L213.2,308.61L213.41,310.74L213.55,301.63L213.69,308.03L213.76,308.5L214.03,299.89L214.45,309.6L214.52,304.46L214.59,304.54L214.73,311.38L214.94,303.79L215.21,304.69L215.28,301.77L215.35,308.91L216.05,307.43L216.12,305.7L216.32,303.62L216.67,309.21L216.95,308.49L217.02,301.78L217.71,311.47L217.78,303.85L217.85,305.88L217.99,311.09L218.13,303.75L218.41,305.65L218.48,308.97L219.24,298.54L219.31,301.1L219.38,306.22L219.45,301.58L219.8,309.02L220.14,303.74L220.21,307.9L220.28,302.97L220.56,309.49L220.91,306.62L220.98,306.84L221.19,308.88L221.33,304.45L221.67,307.08L221.74,309.19L222.16,309.99L222.64,300.32L222.71,300.95L222.78,301.49L222.85,309.73L223.55,308L223.62,306.06L223.76,299.96L224.24,307.33L224.31,305.55L224.38,308.36L225.08,303.36L225.21,304.48L225.28,308.18L225.42,302.27L225.49,309.62L225.98,304.95L226.05,308.01L226.33,310.12L226.74,300.9L226.81,307.94L227.02,309.95L227.44,298.3L227.51,308.96L227.58,308.92L227.64,310.86L227.92,298.04L227.99,306.84L228.06,300.08L228.34,309.57L228.83,302.36L228.89,306.16L229.31,310.17L229.52,302.26L229.59,308.66L230.08,303.91L230.28,304.56L230.35,308.77L230.7,293.66L230.91,309.69L231.05,308.12L231.12,307.89L231.33,309.9L231.39,299.99L231.81,302.77L231.88,309.23L232.37,309.83L232.51,300.73L232.58,303.85L232.64,309.59L233.2,298.64L233.27,309.72L233.41,308.01L233.48,309.76L233.62,310.24L233.76,299.12L234.24,305.02L234.31,305.8L234.52,304.09L235.01,310.92L235.08,305.05L235.28,302.9L235.77,311.53L235.91,306.82L235.98,304.43L236.33,302.65L236.67,309.42L236.74,307.63L236.81,305.56L237.09,302.93L237.23,308.09L237.3,303.46L237.37,308.4L237.85,309.2L238.2,304.21L238.27,309.15L238.83,303.71L238.96,309.82L239.03,307.78L239.1,306.9L239.17,301.96L239.52,310.27L239.8,303.01L239.87,308.32L239.94,308.5L240.01,301.59L240.08,310.21L240.21,298.94L240.7,307.1L240.77,301.23L241.4,310.32L241.6,308.17L241.67,300.73L242.37,308.33L242.44,304.35L242.51,304.12L242.58,310.23L242.71,302.01L243.27,308.48L243.34,305.67L243.41,305.93L243.48,303.15L243.9,307.78L244.1,302.65L244.17,305.6L244.24,303.39L244.31,297.4L244.45,309.67L244.94,302.06L245.01,306.06L245.08,301.65L245.35,309.96L245.7,307.07L245.77,308.32L245.91,309.23L245.98,299L246.53,304.26L246.6,308.54L246.74,310L247.09,301.87L247.44,303.71L247.51,307.96L247.58,308.3L247.65,304.62L247.92,301.62L248.41,310.92L248.48,306.93L248.55,299.23L248.9,309.13L249.17,308.11L249.24,306.77L249.59,308.54L249.66,304.47L249.94,307.71L250.01,312.36L250.21,297.95L250.77,304.51L250.84,308.86L251.05,310.17L251.19,296.79L251.6,306.37L251.67,306.47L251.81,310.66L252.16,303.74L252.23,310.51L252.44,302.58L252.92,304.26L252.99,311.35L253.27,304L253.83,304.72L253.9,304.95L254.1,297.88L254.31,310.7L254.73,310.36L254.8,310.09L255.21,301.77L255.56,305.16L255.63,308.77L255.7,302.37L255.91,310.67L256.4,304L256.46,306.13L257.02,304.71L257.16,310.68L257.23,307.61L257.3,306.44L257.65,308.17L257.71,303.67L257.85,307.25L257.92,307.69L258.06,303.05L258.2,306.95L258.27,307.54L258.41,302.47L258.48,310.25L259.03,306.77L259.1,305.47L259.31,303L259.52,308.56L259.66,306.11L259.73,302.64L260.49,309.1L260.63,308.96L260.7,302.88L261.12,309.03L261.19,299.29L261.4,304.71L261.46,302.39L261.95,295.25L262.02,310.58L262.23,308.35L262.3,304.65L262.65,304.05L262.99,311.28L263.13,308.65L263.2,306.55L263.55,308.59L263.76,303.3L263.97,308.1L264.03,304.9L264.38,299.69L264.52,309.97L264.73,307.24L264.8,304.55L264.94,296.36L265.42,308.97L265.49,308.21L265.56,299.92L265.91,309.65L266.33,307.02L266.4,307.05L266.47,308.92L266.81,302.41L267.09,307.06L267.16,301.08L267.58,300.22L267.72,311.12L267.92,306.28L267.99,302.39L268.2,309.75L268.27,296.34L268.76,309.35L268.83,301.41L269.03,308.73L269.52,301.47L269.59,300.54L269.94,296.67L270.35,308.25L270.42,303.19L270.7,302.17L270.77,308.47L271.12,306.88L271.19,300.6L271.33,297.78L271.4,313.29L271.81,302.79L271.88,300.83L272.02,308.02L272.58,297.75L272.65,301.22L272.85,309.55L273.41,308.73L273.48,305.18L273.76,295.19L274.1,309.53L274.17,302.04L274.24,310.2L274.87,305.1L274.94,302.08L275.28,301.73L275.35,311.38L275.7,305.36L275.77,306.33L275.84,306.53L275.98,305.37L276.05,310.46L276.74,304.29L276.88,305.18L276.95,306.19L277.02,306.05L277.09,309.4L277.37,299.6L277.78,307.52L277.85,306.46L277.92,306.82L277.99,311.36L278.2,301.19L278.76,309.22L278.83,307.7L279.17,311.09L279.59,300.18L279.66,306.04L280.22,310.3L280.35,300.3L280.42,305.46L280.49,306.53L280.7,302.54L281.19,308.93L281.26,306.25L281.4,310.01L281.47,302.53L281.88,306.84L281.95,303.04L282.16,309.34L282.65,302.81L282.72,307.52L282.78,304.04L283.2,310.41L283.41,300.92L283.48,306.89L283.55,294.19L283.76,311.31L284.38,305.81L284.45,307.21L284.66,308.11L285.01,300.13L285.29,304.99L285.35,304.85L285.42,311.12L285.63,288.3L286.12,307.6L286.19,305.82L286.26,305.17L286.4,309.99L286.47,308.65L286.54,310.62L286.95,304.36L287.3,306.06L287.37,309.5L287.79,299.24L288.13,307.74L288.2,305.52L288.34,307.36L288.41,304.08L288.62,307.01L288.69,307.45L288.83,310.24L289.24,304.39L289.38,305.99L289.45,309.47L289.8,310.08L290.15,304.23L290.22,307.35L290.29,306.99L290.42,309.19L290.49,300.52L290.98,306.11L291.05,308.84L291.12,301.52L291.81,305.29L291.88,303.8L292.09,303.2L292.3,308.02L292.37,307.92L292.44,303.62L293.06,310.49L293.13,309.38L293.2,302.99L294.04,309.69L294.1,299.31L294.31,309.1L294.94,307.57L295.01,307.17L295.49,298.06L295.56,310.74L295.7,307.58L295.77,311.07L296.4,302.03L296.54,304.99L296.6,307.81L296.88,301.84L297.09,306.16L297.16,308.65L297.37,300.62L297.58,310.16L297.92,304.85L297.99,306.9L298.06,307.39L298.13,305.65L298.2,300.53L298.27,310.42L298.97,305.72L299.04,304.41L299.66,309.75L299.73,293.84L299.8,302.16L299.87,300.69L300.15,309.87L300.49,302.93L300.56,301.24L301.33,310.91L301.4,305.54L301.47,309.89L301.6,303.42L302.16,308.28L302.23,306.85L302.37,308.39L302.65,302.36L302.92,307.24L302.99,309.21L303.13,302.63L303.76,306.34L303.83,306.81L304.17,301.16L304.45,308.49L304.52,305.7L304.59,302.48L305.01,309.42L305.42,306.61L305.49,305.56L305.7,304.07L305.91,309.83L306.19,305.28L306.26,306.44L306.33,306.2L306.4,307.08L306.47,309.37L306.6,310.16L306.67,302.02L306.88,296.4L307.3,310.3L307.37,304.43L307.44,301.35L307.72,301.13L307.86,309.61L308.2,306.6L308.27,303.58L308.55,309.73L308.62,303.13L308.9,304.92L308.97,300.24L309.45,308.57L309.8,306.03L309.87,307.92L310.08,295.78L310.15,309.52L310.63,302.13L310.7,303.04L310.91,309.61L310.98,302.8L311.4,307.06L311.47,298.84L311.54,310.6L312.09,297.45L312.23,304.79L312.3,306.79L312.65,302.75L312.79,310.37L312.99,306.24L313.06,307.01L313.13,309.82L313.27,302.99L313.76,305.37L313.83,307.32L313.9,307.65L313.97,303.29L314.11,310.62L314.8,309.41L314.87,307.33L314.94,308.05L315.01,303.38L315.36,304.85L315.42,303.35L315.7,310.71L315.84,297.46L316.19,308.48L316.26,303.33L316.47,308.07L316.88,300.34L316.95,298.47L317.16,311.57L317.79,305.44L317.86,305.36L317.92,309.24L318.2,304.16L318.55,308.58L318.62,304.43L319.04,300.13L319.24,310.05L319.38,305.54L319.45,307.36L319.52,309.02L319.73,304.59L319.94,307.09L320.01,300.28L320.36,309.52L320.7,305.73L320.77,299.98L321.19,311.08L321.54,307.3L321.61,299.37L322.16,309.29L322.37,303.97L322.44,305.24L322.51,304.32L322.72,308.41L322.86,307.34L322.92,309.26L322.99,309.43L323.06,308.69L323.13,311.53L323.69,301.57L323.76,306.54L323.97,301.92L324.04,308.3L324.38,307.01L324.45,310.16L325.08,302.57L325.15,309.49L325.36,298.48L325.56,310.76L325.91,304.85L325.98,308.04L326.26,309.23L326.54,303.56L326.67,304.15L326.74,310.34L327.51,302.01L327.65,302.49L327.72,307.42L327.99,309.51L328.06,300.65L328.55,304.99L328.62,306.44L328.9,310.39L329.24,299.02L329.31,306.66L329.38,306.95L329.73,309.47L329.8,302.38L330.01,304.72L330.08,308.41L330.43,303.45L330.56,312.83L330.7,307.95L330.77,311.18L331.12,301.86L331.61,303.59L331.68,303.35L331.74,309.15L331.95,301.65L332.44,308.9L332.51,303.33L332.58,301.47L332.86,310.97L333.13,303.46L333.2,308.91L333.83,312.01L333.9,299.46L333.97,305.21L334.04,308.32L334.18,309.31L334.52,295.77L334.73,305.72L334.8,310.72L335.08,300.93L335.56,307.82L335.63,310.32L335.7,299.48L336.4,303.63L336.47,306.52L336.61,309.67L336.74,299.46L337.23,301.91L337.3,309.99L337.86,312.3L337.93,299.21L338.06,307.7L338.13,306.07L338.34,309.12L338.41,307.89L338.48,303.31L338.83,298.59L339.24,309.64L339.31,303.66L339.59,300.51L339.8,308.85L340.08,307.51L340.15,303.71L340.36,309.29L340.91,307.2L340.98,302.97L341.54,308.03L341.68,306.15L341.74,300.44L342.16,308.77L342.51,306.68L342.58,307.18L342.65,307.47L342.72,305.74L342.79,306.18L342.86,302.59L343.13,300L343.34,309.65L343.62,309.54L343.69,304.4L343.97,303.18L344.18,309.31L344.38,309.18L344.45,304.1L344.73,307.98L344.87,303.08L345.15,307.92L345.22,304.51L345.29,300.12L345.77,307.77L345.91,305.84L345.98,306.44L346.12,308.85L346.4,300.14L346.47,304.84L346.54,306.51L346.88,310.7L347.16,303.53L347.23,306.64L347.3,308.65L347.79,310.94L347.86,300.21L348.06,304.76L348.13,304.9L348.48,309.79L348.55,300.52L348.62,309.85L348.83,302.01L349.31,307.29L349.38,310.01L349.87,310.74L350.15,295.55L350.29,299.64L350.36,309.98L350.56,313.29L350.7,303.3L351.12,304.86L351.19,304.71L351.4,308.71L351.47,303.8L351.61,305.94L351.68,309.94L351.75,293.8L352.44,305.23L352.51,301.42L352.79,308.83L353.34,307.42L353.41,305.13L353.83,301.9L354.11,308.71L354.18,301.14L355.01,311.07L355.08,305.34L355.29,306.33L355.43,305.44L355.5,301.84L355.91,309.41L356.12,300.95L356.26,308.32L356.33,305.29L356.54,311.43L356.61,303.42L356.75,298.28L357.44,310.36L357.51,308.89L357.58,304.57L357.86,311.09L358.2,307.48L358.27,295.3L358.34,308.7L359.04,300.97L359.11,305.67L359.38,305.56L359.52,310.25L359.59,304.22L359.94,300.49L360.22,311.78L360.36,305.47L360.43,307.13L360.5,309.73L360.7,304.34L361.12,308.35L361.19,303.95L361.33,311.28L361.68,305.79L361.75,297.95L361.81,308.66L362.51,302.63L362.58,310.16L362.93,310.55L363.27,300.45L363.41,301.74L363.48,306.54L363.97,311.29L364.18,302.77L364.25,306.33L364.45,303.19L364.73,310.29L364.94,304.68L365.01,308.4L365.08,307.73L365.15,298.59L365.5,310.55L365.56,296.49L365.98,303.59L366.05,306.35L366.19,309.02L366.75,298.87L366.88,302.05L366.95,305.59L367.16,309.93L367.23,308.65L367.3,304.23L367.65,308.84L367.72,299.24L368.06,306.61L368.13,305.37L368.48,302.38L368.69,309.65L368.83,307.57L368.9,304.43L369.45,309.34L369.52,303.23L369.66,304.79L369.73,304.81L370.01,301.06L370.36,312.54L370.5,309.75L370.56,297.43L370.7,308.98L371.4,306.99L371.47,308.84L371.68,304.46L371.88,308.01L371.95,308.87L372.16,300.7L372.3,304.23L372.37,308.88L372.44,295.73L373.07,306.31L373.13,307.76L373.34,308.8L373.41,301.62L373.76,306.73L373.83,308.04L373.97,305.81L374.04,310.99L374.11,310.39L374.18,305.45L374.8,309.45L374.87,303.26L374.94,303.99L375.08,303.69L375.5,310.02L375.63,308.35L375.7,302.28L376.33,310.64L376.47,304.65L376.54,308.43L377.16,303.32L377.3,304.03L377.37,306.34L377.72,303.42L377.86,308.18L377.93,308.8L378.2,303.09L378.62,309.02L378.69,303.39L378.76,304.9L378.83,310.69L379.25,304.39L379.38,307.07L379.45,299.25L380.22,310.12L380.29,311.17L380.5,302.04L381.12,304.68L381.19,306.63L381.4,310.92L381.68,299.22L381.95,302.93L382.02,307.37L382.16,298.87L382.65,299.76L382.72,304.91L383.2,303.74L383.34,311.31L383.41,309.54L383.48,303.37L383.55,310.75L383.76,301.78L384.25,308.62L384.32,309.16L384.66,300.92L384.87,311.82L385.01,302.96L385.08,308.28L385.15,308.91L385.22,302.51L385.98,308.91L386.05,306.28L386.12,305.89L386.61,307.81L386.75,301.5L386.88,305.1L386.95,307.1L387.16,301.65L387.23,308.44L387.37,305.94L387.44,309.64L388.07,299.6L388.2,305.84L388.27,306.8L388.55,299.79L388.83,309.1L389.04,303.28L389.11,309.82L389.73,303.66L389.87,303.78L389.94,305.71L390.08,302.28L390.5,310.94L390.7,306.31L390.77,303.87L391.26,310.71L391.47,310.19L391.54,304.97L391.75,309.19L391.95,302.68L392.3,303.81L392.37,303.05L392.72,301.64L392.93,310.74L393.13,304.1L393.2,303.46L393.34,310.49L393.48,305.77L393.55,305.76L393.83,308.42L394.18,303.33L394.25,303.91L394.32,309.24L394.87,309.44L395.15,303.45L395.22,308.56L395.77,310.17L395.91,302.03L395.98,308.93L396.33,304.78L396.54,309.07L396.68,309.04L396.75,311.21L397.51,302.96L397.58,306.65L397.65,306.51L397.72,309.69L397.79,298.75L398.41,308.34L398.48,308.24L398.83,310.26L398.9,301.7L399.25,304.04L399.32,308.44L399.87,302.14L400.01,308.81L400.08,310.44L400.91,301.7L400.98,308.26L401.4,301.69L401.61,310.2L401.75,303.53L401.82,308.15L401.89,310.2L402.09,303.28L402.3,305.03L402.37,301.32L402.72,297.64L402.93,310.89L403.2,307.8L403.27,307.67L403.41,296.56L403.48,309.7L403.83,303.68L403.9,307.03L404.32,308.14L404.52,304.55L404.59,309.72L404.66,303.54L405.36,307.82L405.43,308.02L406.05,300.57L406.12,305.19L406.19,310.94L407.16,299.16L407.23,307.86L407.65,303.98L407.93,309.98L408,305.56L408.2,297.81L408.27,309.95L408.69,305.63L408.76,303.12L409.39,310.75L409.45,294.8L410.29,308.66L410.36,305.22L410.7,300.32L410.98,310.22L411.12,307.24L411.19,307.7L411.26,301.7L411.54,309.45L411.95,306.6L412.02,308.37L412.09,302.06L412.44,309.29L412.72,308.33L412.79,307.47L413,304.23L413.34,310.13L413.55,305.52L413.62,306.56L413.83,303.29L413.97,308.32L414.04,307.83L414.11,302.04L414.8,308.98L414.87,305.91L414.94,303.14L415.36,309.87L415.57,301.28L415.64,301.02L415.84,310.79L416.33,310.52L416.4,303.9L416.96,302.62L417.16,310.15L417.23,302.94L417.51,301.58L417.86,309.99L417.93,305.67L418,303.35L418.07,303.11L418.14,306.86L418.34,303.39L418.48,310.8L418.55,310.48L418.62,299.83L418.9,310.49L419.18,298.56L419.32,308.38L419.39,299.51L420.15,309.93L420.22,306.07L420.5,301.6L420.91,311.02L420.98,306.67L421.05,300.33L421.82,310.65L421.89,308.27L421.96,302.53L422.09,292.73L422.72,309.11L422.79,308.17L422.86,309L422.93,306.61L423,306.97L423.07,302.01L423.48,309.81L423.69,300.99L423.97,308.59L424.04,305.25L424.18,297.04L424.59,309.22L424.87,308.95L424.94,308.72L425.01,299L425.08,311.25L425.71,305.6L425.77,310L425.91,303.01L426.05,310.39L426.26,310.03L426.33,310.3L426.82,301.68L427.09,309.3L427.16,304.4L427.23,300.65L427.72,308.22L427.86,302.91L427.93,306.89L428.27,308.34L428.62,301.24L428.76,303.12L428.83,306.6L429.25,302.67L429.32,310.34L429.59,303.84L429.66,310.22L429.87,299.45L430.08,310.88L430.43,305.04L430.5,307.72L430.98,301.63L431.05,309.92L431.19,305.26L431.26,307.95L431.33,301.93L431.75,308.45L431.96,306.11L432.02,308.37L432.16,308.82L432.23,308.26L432.3,302.81L433.07,308.95L433.14,305.28L433.27,302.36L433.76,309.4L433.83,304.39L433.9,301.13L434.32,300.16L434.46,311.35L434.66,305.06L434.73,304.7L434.94,296.08L435.15,307.73L435.29,304.52L435.36,308.95L435.64,299.85L435.98,311.03L436.12,304.58L436.19,309.32L436.26,302.15L436.96,307L437.02,304.15L437.23,308.84L437.51,300.6L437.58,308.03L437.65,299.84L437.72,309.24L438.34,306.55L438.41,304.07L438.76,309.63L438.9,302.73L439.11,307.77L439.18,302.5L439.32,310.85L439.94,304.29L440.01,303.73L440.08,301.08L440.29,309.67L440.57,306.82L440.64,309.26L440.71,310.64L440.78,304.41L440.84,293.37L441.61,310.34L441.68,305.01L442.3,302.86L442.37,309.57L442.44,308.28L442.51,307.62L442.58,309.35L442.86,302.19L443.07,307.3L443.14,301.95L443.83,311.23L443.9,305.44L443.97,308.06L444.11,301.88L444.25,308.33L444.73,307.04L444.8,305.95L445.01,305.57L445.36,309.85L445.5,307.84L445.57,303.46L445.91,310.87L446.19,303.34L446.33,304.74L446.4,305.27L446.54,309.56L446.96,302.67L447.16,308.12L447.23,304.79L447.86,311.21L448.07,306.93L448.14,307.56L448.41,298.13L448.76,307.8L448.9,306.45L448.97,306.37L449.11,300.34L449.18,307.71L449.25,305.89L449.32,311.24L449.46,300.58L450.15,304.27L450.22,309.24L450.29,300.03L450.91,306.08L450.98,308.89L451.47,309.37L451.68,301.25L451.75,308.32L451.82,310.42L452.09,303.18L452.3,307.53L452.37,303.43L452.51,298.37L453.14,308.72L453.21,305.86L453.62,309.57L453.69,302.22L453.83,305.31L453.9,310.6L454.46,301.6L454.53,306.59L454.59,308.51L454.73,301.85L454.94,308.59L455.36,306.72L455.43,306.53L455.5,309.05L455.91,305.93L455.98,308.88L456.05,299.74L456.19,309.88L456.89,306.51L456.96,303.52L457.37,309.73L457.65,302.77L457.72,307.1L457.79,303.46L458.62,309.92L458.69,306.54L458.76,309.11L458.83,304.07L459.32,307.51L459.39,302.44L459.87,308.22L460.22,306.1L460.29,305.55L460.5,303.02L460.57,310.97L461.05,306.45L461.12,306.59L461.19,306.37L461.26,309.58L461.75,300.03L462.1,300.76L462.16,305.61L462.23,298.31L462.86,309.56L462.93,308.78L463.21,309.51L463.28,302.68L463.48,306.37L463.55,290.52L463.62,310.62L464.32,306.47L464.39,306.96L464.46,307.27L464.53,303.97L464.87,309.58L465.29,309.01L465.36,306.13L465.71,301.54L465.98,309.55L466.05,309.23L466.47,299.22L466.82,306.3L466.89,306.58L467.03,307.92L467.16,304.05L467.3,305.73L467.37,303.84L467.51,299.14L467.86,310.45L468.07,304.81L468.14,307.84L468.35,298.35L468.76,310.68L468.83,306.59L468.9,303.66L469.04,309.05L469.6,307.02L469.66,299.68L470.01,308.11L470.5,304.9L470.57,302.73L470.64,302.33L470.71,303.12L470.78,310.98L471.19,302.48L471.54,305.47L471.61,307.75L471.89,302.9L471.96,310.31L472.37,306.88L472.44,306.24L472.65,308.76L472.93,307.27L473,299.61L473.35,309.52L473.76,303.53L473.83,304.94L474.39,309.99L474.6,300.52L474.66,308.12L474.87,301.41L475.08,309.72L475.43,301.73L475.5,309.12L475.71,301.55L475.78,310.33L476.26,306.59L476.33,307.95L476.89,309.3L477.03,302.24L477.1,308.37L477.37,302.96L477.72,308.4L477.86,306.42L477.93,309.84L478.21,304.18L478.62,307.1L478.69,309.52L479.04,299.08L479.53,302.74L479.6,301.72L479.73,309.25L480.01,301.36L480.36,305.78L480.43,303.45L480.78,300.63L480.85,307.28L480.91,304.71L480.98,300.61L481.33,309.71L481.82,306.02L481.89,307.07L482.16,300.91L482.65,309.41L482.72,305.19L483.21,308.84L483.28,302.42L483.48,308.49L483.55,302.7L483.9,297.01L484.04,309.66L484.39,307.19L484.46,307.5L484.67,302.87L484.87,309.93L485.15,305.07L485.22,308.37L485.29,309.44L485.43,303.49L485.5,304.57L485.57,299.11L486.05,311.12L486.33,305.38L486.4,306.14L486.75,309.79L487.03,294.32L487.17,305.64L487.23,306.19L487.3,308.07L487.51,301.36L487.86,306.62L487.93,304.42L488.07,298.27L488.28,310.62L488.69,308.39L488.76,307.86L488.9,300L489.18,310.19L489.32,307.84L489.39,304.31L489.46,310.25L490.01,301.24L490.15,310.19L490.22,304.08L490.57,302.33L490.71,310.27L490.78,308.26L490.85,303.9L490.92,303.19L491.12,307.28L491.26,303.94L491.33,309.42L491.96,304.11L492.17,305.56L492.23,310.16L492.79,311.8L493,302.61L493.07,306.63L493.21,305.08L493.48,309.93L493.69,307.63L493.76,303.86L493.83,309.54L494.46,300.95L494.53,307.7L494.6,306.97L494.94,296.36L495.15,309.86L495.36,303.47L495.43,306.76L495.64,310.47L495.71,300.09L496.05,306.63L496.12,312.31L496.19,301.47L496.89,304.71L496.96,305.11L497.03,300.74L497.51,308.6L497.65,307.75L497.72,308.13L497.79,310.65L498.07,304.35L498.35,307.06L498.42,303.1L499.11,308.95L499.18,304.29L499.25,306.73L499.53,303.37L499.6,310.21L499.8,307.31L499.87,309.27L500.43,301.73L500.5,304.08L500.57,308.55L500.85,309.66L500.92,300.77L501.33,306.5L501.4,304.96L501.47,301.34L501.54,310.66L502.1,303.33L502.17,308.95L502.23,310.13L502.3,300.69L502.79,307.31L502.86,306.66L503.14,301.59L503.42,311.81L503.48,305.17L503.55,301.21L504.18,310.66L504.32,305.29L504.39,306.93L504.46,309.67L504.8,300.08L505.08,307.35L505.15,307.25L505.22,307.41L505.29,301.66L505.92,308.56L506.19,308.15L506.26,307.77L506.33,303.57L506.47,308.92L506.96,305.81L507.03,308.52L507.24,306.1L507.58,309.89L507.65,295.24L508.21,309.45L508.42,305.29L508.49,306.92L508.9,307.81L508.97,304.16L509.25,305.61L509.32,308.64L510.01,294.27L510.08,307.77L510.15,306.53L510.5,310.9L510.71,301.55L510.85,302.81L510.92,307.68L511.12,301.5L511.68,310.05L511.75,305.28L512.1,302.85L512.24,309.34L512.37,304.78L512.44,300.42L512.93,299.83L513.28,309.02L513.35,305.58L513.49,301.78L513.76,304.63L513.83,307.43L514.11,300.21L514.32,311.56L514.6,303.57L514.67,308.07L514.74,303.78L515.15,310.86L515.36,305.15L515.43,307.71L515.99,310L516.05,299.88L516.19,303.58L516.26,303.92L516.89,309.01L517.03,307.2L517.1,307.18L517.17,307.53L517.24,306L517.3,306.14L517.37,303.73L517.86,309.83L518,298.14L518.07,306.24L518.14,300L518.62,299.74L518.83,311.07L518.9,301.88L518.97,306.46L519.32,302.17L519.74,308.52L519.8,305.33L519.87,305.02L519.94,305.97L520.01,308.8L520.08,300.56L520.36,309.59L520.71,308.6L520.78,308.47L520.85,312.04L520.92,304.04L521.54,309.3L521.61,309.33L522.17,297.11L522.3,303.09L522.37,307.98L522.72,309.3L522.93,302.4L523.14,306.38L523.21,305.58L523.42,305.22L523.49,307.21L523.55,301.98L523.97,307.81L524.32,303.54L524.39,305.1L524.46,310.23L524.67,302.88L525.01,307.14L525.08,298.73L525.57,309.57L525.78,304.96L525.85,299.64L526.68,311.15L526.75,306.3L526.89,298.35L527.17,308.78L527.31,307.16L527.37,307.76L527.58,301.53L528,310.16L528.07,301.75L528.14,308.31L528.35,308.65L528.76,299.1L528.9,304.16L528.97,308.39L529.25,309.49L529.6,299.89L529.81,302.54L529.87,305.1L530.08,298.95L530.57,308.93L530.64,306.68L530.71,304.82L530.92,302.15L531.26,310.57L531.47,303.28L531.54,304.27L532.03,301.79L532.37,310.51L532.44,298.6L532.72,310.62L533.21,307.35L533.28,303.21L533.56,301.06L533.9,310.47L534.04,306.87L534.11,307.71L534.18,303.28L534.53,308.92L534.81,307.35L534.87,309.22L535.43,310.22L535.5,300.1L535.64,307.86L535.71,308.1L535.85,303.57L535.92,297.68L536.54,310.04L536.68,305.5L536.75,306.65L536.82,309.85L537.44,304.14L537.51,307.61L537.58,308.62L537.65,310.13L538,303.23L538.07,306.8L538.14,301.25L538.21,309.77L538.9,303.4L538.97,307.07L539.39,301.09L539.6,308.37L539.67,309.93L540.29,311L540.36,301.27L540.5,302.99L540.57,308.17L540.64,309.98L540.99,303.09L541.19,307.33L541.26,305.34L541.47,311.32L541.54,304.15L541.96,308.82L542.03,301.69L542.58,308.89L542.79,305.41L542.86,303.21L543.14,310.97L543.56,303.07L543.62,307L543.69,302.78L543.76,303.25L543.83,310.12L543.97,302.32L544.04,310.13L544.18,301.69L544.81,305.4L544.87,304.81L544.94,304.63L545.01,308.24L545.15,309.83L545.36,299.57L545.71,306.7L545.78,311.18L546.19,294.31L546.54,304.63L546.61,305.55L546.68,300.23L546.89,309.51L547.37,303.61L547.44,309.74L547.58,302.49L547.72,310.02L548,308.19"/></g><g class="points"/><g class="text"/></g></g></g><g class="overplot"/><path class="xlines-above crisp" style="fill: none;" d="M0,0"/><path class="ylines-above crisp" style="fill: none;" d="M0,0"/><g class="overlines-above"/><g class="xaxislayer-above"><g class="xtick"><text text-anchor="middle" x="0" y="403" style="font-family: TOBESTRIPPEDOpen SansTOBESTRIPPED, verdana, arial, sans-serif; font-size: 12px; fill: rgb(68, 68, 68); fill-opacity: 1; white-space: pre;" transform="translate(60,0)">0</text></g><g class="xtick"><text text-anchor="middle" x="0" y="403" style="font-family: TOBESTRIPPEDOpen SansTOBESTRIPPED, verdana, arial, sans-serif; font-size: 12px; fill: rgb(68, 68, 68); fill-opacity: 1; white-space: pre;" transform="translate(233.62,0)">50k</text></g><g class="xtick"><text text-anchor="middle" x="0" y="403" style="font-family: TOBESTRIPPEDOpen SansTOBESTRIPPED, verdana, arial, sans-serif; font-size: 12px; fill: rgb(68, 68, 68); fill-opacity: 1; white-space: pre;" transform="translate(407.23,0)">100k</text></g><g class="xtick"><text text-anchor="middle" x="0" y="403" style="font-family: TOBESTRIPPEDOpen SansTOBESTRIPPED, verdana, arial, sans-serif; font-size: 12px; fill: rgb(68, 68, 68); fill-opacity: 1; white-space: pre;" transform="translate(580.85,0)">150k</text></g></g><g class="yaxislayer-above"><g class="ytick"><text text-anchor="end" x="59" y="4.199999999999999" style="font-family: TOBESTRIPPEDOpen SansTOBESTRIPPED, verdana, arial, sans-serif; font-size: 12px; fill: rgb(68, 68, 68); fill-opacity: 1; white-space: pre;" transform="translate(0,381.11)">0</text></g><g class="ytick"><text text-anchor="end" x="59" y="4.199999999999999" style="font-family: TOBESTRIPPEDOpen SansTOBESTRIPPED, verdana, arial, sans-serif; font-size: 12px; fill: rgb(68, 68, 68); fill-opacity: 1; white-space: pre;" transform="translate(0,328.34)">0.5</text></g><g class="ytick"><text text-anchor="end" x="59" y="4.199999999999999" style="font-family: TOBESTRIPPEDOpen SansTOBESTRIPPED, verdana, arial, sans-serif; font-size: 12px; fill: rgb(68, 68, 68); fill-opacity: 1; white-space: pre;" transform="translate(0,275.57)">1</text></g><g class="ytick"><text text-anchor="end" x="59" y="4.199999999999999" style="font-family: TOBESTRIPPEDOpen SansTOBESTRIPPED, verdana, arial, sans-serif; font-size: 12px; fill: rgb(68, 68, 68); fill-opacity: 1; white-space: pre;" transform="translate(0,222.8)">1.5</text></g><g class="ytick"><text text-anchor="end" x="59" y="4.199999999999999" style="font-family: TOBESTRIPPEDOpen SansTOBESTRIPPED, verdana, arial, sans-serif; font-size: 12px; fill: rgb(68, 68, 68); fill-opacity: 1; white-space: pre;" transform="translate(0,170.01999999999998)">2</text></g><g class="ytick"><text text-anchor="end" x="59" y="4.199999999999999" style="font-family: TOBESTRIPPEDOpen SansTOBESTRIPPED, verdana, arial, sans-serif; font-size: 12px; fill: rgb(68, 68, 68); fill-opacity: 1; white-space: pre;" transform="translate(0,117.25)">2.5</text></g><g class="ytick"><text text-anchor="end" x="59" y="4.199999999999999" style="font-family: TOBESTRIPPEDOpen SansTOBESTRIPPED, verdana, arial, sans-serif; font-size: 12px; fill: rgb(68, 68, 68); fill-opacity: 1; white-space: pre;" transform="translate(0,64.48)">3</text></g></g><g class="overaxes-above"/></g></g><g class="polarlayer"/><g class="ternarylayer"/><g class="geolayer"/><g class="pielayer"/><g class="glimages"/><defs id="topdefs-adc5ff"><g class="clips"/><clipPath id="legendadc5ff"><rect width="69" height="29" x="0" y="0"/></clipPath></defs><g class="layer-above"><g class="imagelayer"/><g class="shapelayer"/></g><g class="infolayer"><g class="legend" pointer-events="all" transform="translate(618.96, 60)"><rect class="bg" shape-rendering="crispEdges" style="stroke: rgb(68, 68, 68); stroke-opacity: 1; fill: rgb(255, 255, 255); fill-opacity: 1; stroke-width: 0px;" width="69" height="29" x="0" y="0"/><g class="scrollbox" transform="translate(0, 0)" clip-path="url(#legendadc5ff)"><g class="groups"><g class="traces" style="opacity: 1;" transform="translate(0, 14.5)"><g class="layers" style="opacity: 1;"><g class="legendfill"/><g class="legendlines"><path class="js-line" d="M5,0h30" style="fill: none; stroke: rgb(31, 119, 180); stroke-opacity: 1; stroke-width: 2px;"/></g><g class="legendsymbols"><g class="legendpoints"/></g></g><text class="legendtext user-select-none" text-anchor="start" style="font-family: TOBESTRIPPEDOpen SansTOBESTRIPPED, verdana, arial, sans-serif; font-size: 12px; fill: rgb(68, 68, 68); fill-opacity: 1; white-space: pre;" x="40" y="4.680000000000001">loss</text><rect class="legendtoggle" style="cursor: pointer; fill: rgb(0, 0, 0); fill-opacity: 0;" pointer-events="all" x="0" y="-9.5" width="109" height="19"/></g></g></g><rect class="scrollbar" rx="20" ry="3" width="0" height="0" style="fill: rgb(128, 139, 164); fill-opacity: 1;" x="0" y="0"/></g><g class="g-gtitle"><text class="gtitle" style="font-family: TOBESTRIPPEDOpen SansTOBESTRIPPED, verdana, arial, sans-serif; font-size: 17px; fill: rgb(68, 68, 68); opacity: 1; font-weight: normal; white-space: pre;" x="350" y="30" text-anchor="middle" dy="0em">DeepFusion_Trancated   iqaloss_train</text></g><g class="g-xtitle"><text class="xtitle" style="font-family: TOBESTRIPPEDOpen SansTOBESTRIPPED, verdana, arial, sans-serif; font-size: 14px; fill: rgb(68, 68, 68); opacity: 1; font-weight: normal; white-space: pre;" x="334" y="442" text-anchor="middle">iteration</text></g><g class="g-ytitle"><text class="ytitle" transform="rotate(-90,22,225)" style="font-family: TOBESTRIPPEDOpen SansTOBESTRIPPED, verdana, arial, sans-serif; font-size: 14px; fill: rgb(68, 68, 68); opacity: 1; font-weight: normal; white-space: pre;" x="22" y="225" text-anchor="middle">loss</text></g></g></svg>