<svg class="main-svg" xmlns="http://www.w3.org/2000/svg" xmlns:xlink="http://www.w3.org/1999/xlink" width="700" height="450" style="" viewBox="0 0 700 450"><rect x="0" y="0" width="700" height="450" style="fill: rgb(255, 255, 255); fill-opacity: 1;"/><defs id="defs-32b847"><g class="clips"><clipPath id="clip32b847xyplot" class="plotclip"><rect width="548" height="330"/></clipPath><clipPath class="axesclip" id="clip32b847x"><rect x="60" y="0" width="548" height="450"/></clipPath><clipPath class="axesclip" id="clip32b847y"><rect x="0" y="60" width="700" height="330"/></clipPath><clipPath class="axesclip" id="clip32b847xy"><rect x="60" y="60" width="548" height="330"/></clipPath></g><g class="gradients"/></defs><g class="bglayer"/><g class="layer-below"><g class="imagelayer"/><g class="shapelayer"/></g><g class="cartesianlayer"><g class="subplot xy"><g class="layer-subplot"><g class="shapelayer"/><g class="imagelayer"/></g><g class="gridlayer"><g class="x"><path class="xgrid crisp" transform="translate(233.62,0)" d="M0,60v330" style="stroke: rgb(238, 238, 238); stroke-opacity: 1; stroke-width: 1px;"/><path class="xgrid crisp" transform="translate(407.23,0)" d="M0,60v330" style="stroke: rgb(238, 238, 238); stroke-opacity: 1; stroke-width: 1px;"/><path class="xgrid crisp" transform="translate(580.85,0)" d="M0,60v330" style="stroke: rgb(238, 238, 238); stroke-opacity: 1; stroke-width: 1px;"/></g><g class="y"><path class="ygrid crisp" transform="translate(0,382.99)" d="M60,0h548" style="stroke: rgb(238, 238, 238); stroke-opacity: 1; stroke-width: 1px;"/><path class="ygrid crisp" transform="translate(0,320.62)" d="M60,0h548" style="stroke: rgb(238, 238, 238); stroke-opacity: 1; stroke-width: 1px;"/><path class="ygrid crisp" transform="translate(0,258.26)" d="M60,0h548" style="stroke: rgb(238, 238, 238); stroke-opacity: 1; stroke-width: 1px;"/><path class="ygrid crisp" transform="translate(0,195.89)" d="M60,0h548" style="stroke: rgb(238, 238, 238); stroke-opacity: 1; stroke-width: 1px;"/><path class="ygrid crisp" transform="translate(0,133.53)" d="M60,0h548" style="stroke: rgb(238, 238, 238); stroke-opacity: 1; stroke-width: 1px;"/><path class="ygrid crisp" transform="translate(0,71.16)" d="M60,0h548" style="stroke: rgb(238, 238, 238); stroke-opacity: 1; stroke-width: 1px;"/></g></g><g class="zerolinelayer"><path class="xzl zl crisp" transform="translate(60,0)" d="M0,60v330" style="stroke: rgb(68, 68, 68); stroke-opacity: 1; stroke-width: 1px;"/></g><path class="xlines-below"/><path class="ylines-below"/><g class="overlines-below"/><g class="xaxislayer-below"/><g class="yaxislayer-below"/><g class="overaxes-below"/><g class="plot" transform="translate(60, 60)" clip-path="url(#clip32b847xyplot)"><g class="scatterlayer mlayer"><g class="trace scatter trace393b62" style="stroke-miterlimit: 2; opacity: 1;"><g class="fills"/><g class="errorbars"/><g class="lines"><path class="js-line" style="vector-effect: non-scaling-stroke; fill: none; stroke: rgb(31, 119, 180); stroke-opacity: 1; stroke-width: 2px; opacity: 1;" d="M0,16.5L0.9,228.22L1.04,212.74L1.11,251.67L2.08,288.63L2.22,282.83L2.29,276.46L2.85,299.42L2.99,298.07L3.06,279.13L3.19,300.82L3.82,298.36L3.89,287.94L4.58,305.04L4.72,297.96L4.79,292.76L5.21,288.88L5.28,305.22L5.56,299.83L5.63,296.94L5.83,292.13L6.53,303.96L6.6,301.06L6.67,301.87L6.74,297.51L6.81,301.33L6.88,292.37L7.15,301.9L7.64,300.85L7.71,298.53L7.78,304.81L7.99,294.26L8.47,299.58L8.54,281.69L8.68,304.89L9.31,299.32L9.38,288.68L9.86,307.29L10.14,306.09L10.21,303.27L10.56,305.25L11.11,291.35L11.18,300.37L11.46,293.02L11.53,302.02L11.67,298.54L11.74,302.2L11.81,305.49L12.36,296.68L12.43,303.7L12.5,301.56L12.71,298.55L12.78,305.34L13.19,302.17L13.26,301.56L13.33,294.98L13.47,303.97L13.96,301.87L14.03,308.29L14.65,295.51L14.86,297.25L14.93,295.6L15.07,289.56L15.14,306.82L15.76,303.28L15.83,295.15L16.46,304.83L16.6,302.84L16.67,300.76L16.74,298.36L17.15,307.45L17.43,300.42L17.5,305.1L17.71,297.08L17.99,307.02L18.26,302.53L18.33,303.49L18.54,305.14L18.61,294.96L19.03,306.97L19.44,304.33L19.51,305.32L19.58,298.46L20,307.68L20.28,299.42L20.35,301.56L20.69,293.79L20.9,304.98L20.97,298.72L21.04,294.68L21.81,304.91L21.88,306.68L22.57,297.22L22.64,302.36L22.71,304.03L22.78,305.04L22.85,297.71L22.92,304.87L22.99,290.74L23.26,307.02L23.75,304.21L23.82,303.05L24.31,299.12L24.45,305.84L24.58,305.45L24.65,304.24L25.14,305.33L25.28,295.35L25.49,299.02L25.56,302.47L25.63,308.76L25.76,296.1L26.32,307.72L26.39,301.74L26.53,300.95L27.01,306.47L27.08,296.91L27.36,305.68L27.92,304.5L27.99,304.9L28.2,306.33L28.68,300.58L28.75,305.28L28.82,289.74L29.1,309.31L29.51,300.67L29.58,303.79L29.72,304.22L29.79,303.8L29.86,292.5L30.7,308.69L30.76,299.16L31.04,296.36L31.39,307.66L31.46,302.92L31.53,297.59L31.67,296.23L31.74,308.86L32.36,303.82L32.43,300.33L32.92,307.22L33.06,303.88L33.13,295.29L33.61,309.55L33.96,305.03L34.03,298.89L34.17,308.94L34.31,297.53L34.79,304.75L34.86,304.73L35.07,307.64L35.21,300.39L35.63,305.99L35.7,304.38L36.11,307.04L36.46,299.92L36.53,306.07L36.81,301L37.01,306.82L37.29,303.31L37.36,309.1L38.06,294.05L38.13,303.4L38.2,305.66L38.33,307.42L38.54,301.36L38.75,304.43L38.82,300.41L39.1,299.08L39.58,309.56L39.65,302.12L39.86,309.35L40.35,298.83L40.42,304.46L40.49,304.25L40.7,301.42L40.9,308.35L40.97,304.96L41.04,308.73L41.11,298.84L41.81,304.73L41.88,302.57L42.22,308.62L42.36,300.63L42.57,307.55L42.64,300.97L42.71,306.55L43.33,298.22L43.4,294.57L43.47,306.6L44.17,306.43L44.24,303.34L44.65,299.42L44.86,306.74L44.93,307.6L45.49,298.64L45.7,303.25L45.77,304.08L46.18,299.5L46.46,308.16L46.53,304.34L46.6,297.51L47.02,308.99L47.29,302.74L47.36,305.08L47.43,306.25L47.57,297.07L47.78,303.32L47.85,290.05L48.13,307.43L48.68,301.3L48.75,303.99L49.17,308.56L49.52,298.55L49.58,309.01L50.07,293.4L50.35,300.11L50.42,308.5L50.63,299.15L50.9,309.26L51.04,300.51L51.11,306.71L51.25,299.81L51.53,310.93L51.81,302.16L51.88,304.21L52.02,310.36L52.08,295.44L52.5,301.94L52.57,300.52L52.64,299.38L52.71,305.46L52.99,304.33L53.06,307.81L53.4,297.72L53.75,308.65L53.89,300.37L53.96,302.63L54.03,300.54L54.1,308.65L54.52,301.77L54.58,307.15L54.93,309.93L55.07,299.6L55.21,302.36L55.28,307.42L55.7,300.9L56.04,303.94L56.11,304.69L56.32,294.57L56.46,302.28L56.53,306.32L56.67,299.69L56.95,306.74L57.29,303.08L57.36,304.86L57.71,299.91L57.85,308.7L57.92,301.21L57.99,308.71L58.2,298.4L58.82,302.13L58.89,305.73L59.1,297.98L59.31,308.78L59.52,304.04L59.58,307.5L59.86,298.58L60,308.66L60.28,304.52L60.35,306.48L60.9,307.34L61.11,295.57L61.18,304.43L61.32,309.27L61.39,303.56L61.6,306.78L61.67,303L61.81,304.14L61.88,296.99L62.08,311.88L62.64,305.11L62.71,308.82L63.2,299.42L63.47,301.26L63.54,306.43L63.61,299.09L64.03,308.59L64.31,303.78L64.38,306.2L64.45,301.95L64.58,307.24L65.07,304.02L65.14,306.89L65.77,309.22L65.9,298.37L65.97,299.25L66.04,304.89L66.25,301.12L66.39,309.41L66.74,304.34L66.81,304.22L67.09,298.9L67.22,307.19L67.5,300.79L67.57,304.59L67.92,307.37L68.27,297.09L68.34,299.48L68.4,304.51L68.75,304.22L68.82,307.46L68.89,302.88L68.96,308.19L69.59,302.72L69.65,307.38L69.72,306L69.79,296.93L70.35,308.19L70.42,305.97L70.49,307.25L70.7,308.33L70.97,301.97L71.18,304.12L71.25,308.76L71.39,300.21L72.02,303.77L72.09,307.5L72.43,300.03L72.78,307.77L72.92,302.57L72.99,303.23L73.2,302.72L73.68,306.89L73.75,303.6L73.89,301.64L73.96,308.05L74.31,308.62L74.79,293.84L74.86,305.43L75.07,309.53L75.21,298.14L75.63,301.42L75.7,307.82L75.77,307.67L75.84,303.9L75.9,307.77L76.11,301.02L76.53,304.59L76.6,302.52L76.74,308.72L76.88,297.92L77.22,303.76L77.29,304.57L77.36,304.13L77.43,295.27L77.78,307.26L78.2,307.07L78.27,305.63L78.47,300.63L78.61,306.46L79.03,302.07L79.1,303.72L79.52,309.22L79.65,297.9L79.72,300.12L79.79,307.31L79.93,306.74L80,303L80.07,302.43L80.14,306.12L80.21,308.3L80.7,294.86L80.9,303.6L80.97,302.99L81.39,297.88L81.6,309.57L81.74,306.02L81.81,305.77L81.95,307.27L82.36,297.55L82.5,304.89L82.57,307.72L82.64,308.58L82.78,306.27L82.85,306.52L82.92,301.29L83.47,308.8L83.68,307.62L83.75,296.75L83.96,309.08L84.52,304.37L84.59,300.94L84.93,307.67L85.28,302.56L85.35,300.39L85.49,299.94L85.77,308.3L86.04,303.54L86.11,298.35L86.53,307.73L86.81,304.49L86.88,299.95L87.29,309.3L87.36,295.27L87.71,305.06L87.78,304.61L88.2,300.9L88.34,307.49L88.41,306.38L88.47,311.38L89.03,299.23L89.24,308.2L89.31,307.61L89.38,299.17L89.66,308.47L90,304.01L90.07,307.51L90.14,309.68L90.42,300.38L90.63,303.03L90.7,303.61L90.84,302.6L90.91,306.2L91.04,299.16L91.46,302.1L91.53,306.71L91.6,306.21L91.67,310.72L91.74,299.5L92.02,298.04L92.57,307.01L92.64,303.75L92.85,302.1L93.2,308.94L93.34,307.67L93.41,299.62L93.89,307.33L94.17,303.28L94.24,302.26L94.31,301.75L94.38,302.7L94.45,306.29L94.66,301.34L95.14,310.2L95.21,300.89L95.35,307.78L95.84,305.91L95.91,297.9L96.32,307.8L96.67,303.54L96.74,306.56L96.88,309.23L97.22,299.27L97.5,305.7L97.57,306.05L97.64,306.63L97.78,302.01L97.85,304.65L97.92,310.19L97.99,296.71L98.61,313.5L98.68,304.46L98.75,302.38L99.31,308.9L99.38,298.2L99.45,295.3L99.79,310.87L100.21,308.1L100.28,298.41L100.91,307.38L100.97,306.85L101.04,302.05L101.6,300.82L101.74,311.49L101.88,308.63L101.95,304.85L102.02,304.69L102.09,301.19L102.64,299L102.92,309.5L102.99,304.42L103.13,300.29L103.41,304.98L103.47,301.58L103.54,306.52L103.96,297.41L104.1,310.93L104.17,308.31L104.24,301.23L105,309.69L105.07,302.36L105.14,302.57L105.21,307.14L105.35,298.36L105.91,309.3L105.97,308.54L106.32,308.92L106.46,300.69L106.81,302.54L106.88,309.56L107.02,302.49L107.64,305.14L107.71,306.98L108.2,300.28L108.41,309.16L108.47,308.25L108.82,299.07L108.89,308.83L108.96,301.39L109.03,307.46L109.38,298.68L109.45,307.87L109.59,302.95L109.66,305.76L109.86,308.19L110.14,300.88L110.42,304.09L110.49,309.02L111.25,301.1L111.32,308.17L111.39,309.62L111.53,297.27L111.81,308.91L111.88,299.85L112.5,308.26L112.64,303.06L112.71,302.12L112.78,297.57L113.27,308.92L113.41,299.61L113.48,306.6L113.54,307.71L113.82,302.14L114.1,305.62L114.17,300.54L114.24,301.09L114.31,307.83L114.38,309.22L114.45,297.82L114.66,302.78L114.73,300.85L115.21,310.37L115.28,297.89L115.49,305.19L115.56,301.31L115.84,299.01L115.98,306.44L116.39,304.7L116.46,305.5L116.53,309.32L116.95,300.92L117.16,302.87L117.23,305.09L117.43,310.95L117.57,301.97L117.99,302.9L118.06,307.15L118.54,302.27L118.75,308.27L118.82,308.21L119.38,292.05L119.45,308.29L119.59,299.31L119.66,302.3L120,307.18L120.07,299.2L120.21,307.07L120.28,299.33L120.42,308.33L120.98,306.39L121.04,298.24L121.74,309.62L121.88,305.76L121.95,300.63L122.57,310.37L122.64,308.56L122.71,301.08L123.2,308.24L123.48,304.8L123.54,301.37L123.75,307.31L124.03,295.47L124.31,305L124.38,304.43L124.66,309.92L124.93,301.05L125.14,306.87L125.21,306.04L125.28,308.75L125.56,301.45L125.84,306.82L125.91,303.96L126.04,307.1L126.6,298.93L126.67,305.75L126.88,306.64L127.36,298.98L127.43,307.82L127.5,308.49L127.57,299.54L127.64,299.04L127.71,305.18L128.06,294.98L128.34,307.27L128.41,301.2L128.48,306.3L128.54,307.72L128.68,303.26L128.75,304.21L128.82,295.6L129.24,309.09L129.59,302.81L129.66,303.75L130.07,308.03L130.21,300.29L130.28,302.65L130.35,307.77L130.49,298.91L130.77,310.27L131.11,305.38L131.18,308.06L131.74,310.68L131.88,301.47L131.95,306.36L132.02,305.06L132.43,308.82L132.57,300.72L132.71,304.24L132.78,302.39L133.06,301.68L133.55,309.8L133.61,303.93L133.75,300.31L133.82,308.97L134.31,305.08L134.38,298.81L134.45,308.86L134.52,297.47L135.14,305.19L135.21,307.48L135.42,292.38L135.91,306.37L135.98,306.95L136.32,297.91L136.6,306.37L136.67,311.04L137.36,300.26L137.5,306.41L137.57,305.07L137.64,299.21L138.2,309.09L138.34,303.11L138.41,305.9L138.48,308.66L138.89,300.79L139.1,304.21L139.17,305.28L139.24,308.54L139.52,298.89L139.86,308.39L139.93,304.35L140.14,299.7L140.42,309.09L140.56,305.25L140.63,308.15L140.77,307.78L140.84,301.69L141.05,309.28L141.6,306.77L141.67,300.78L141.81,308.98L141.95,290.47L142.16,299.86L142.23,302.81L142.36,307.04L142.92,300.04L142.99,302.98L143.27,299.55L143.41,305.16L143.48,302.3L143.55,307.75L143.82,296.92L143.96,308.17L144.31,302.33L144.38,308.63L145,299.55L145.21,303.01L145.28,304.15L145.56,309.89L145.91,300.54L145.98,302.51L146.05,303.76L146.11,306.75L146.53,295.23L146.81,306.26L146.88,305.61L147.36,301.97L147.43,311.16L147.57,304.08L147.64,308.17L147.99,309.93L148.27,300.79L148.41,303.03L148.48,307.26L148.96,307.56L149.24,298.04L149.31,305.29L149.38,303.16L149.59,308.14L149.93,305.94L150,309.87L150.21,310.94L150.49,303.94L150.7,307.39L150.77,309.53L151.32,301.37L151.6,302.13L151.67,305.85L152.02,300.93L152.09,306.14L152.16,306.61L152.23,301.44L152.43,298.69L152.5,309.51L153.06,306.58L153.13,306.9L153.34,308.33L153.89,300.12L153.96,305.19L154.24,300.38L154.45,307.36L154.52,298.1L154.93,307.21L155.28,304.21L155.35,302.97L155.49,309.15L155.91,298.69L156.05,303.54L156.12,305.95L156.6,300.44L156.67,310.32L156.88,302.77L156.95,308.82L157.23,309.62L157.64,302.06L157.78,305.11L157.85,308.88L158.41,303.81L158.48,306.09L158.55,309.72L158.68,309.94L159.31,301.27L159.38,309L159.93,301.76L160.07,307.38L160.14,308.47L160.77,297.31L160.91,302.93L160.98,302.37L161.53,309.64L161.67,305.61L161.74,298.05L162.3,308.05L162.5,304.05L162.57,300.15L162.71,308.23L163.34,306.52L163.41,305.06L163.62,302.24L163.82,308.1L163.89,299.13L163.96,310.64L164.66,307.48L164.73,305.28L164.8,309L165.35,301.49L165.49,307.65L165.56,307.68L165.63,308.8L165.7,304.73L165.77,306.31L165.84,299.31L166.6,310.38L166.67,309.33L167.09,293.12L167.37,301.57L167.43,309.04L167.57,301.31L168.2,306.61L168.27,305.25L168.68,309.45L168.75,302.69L169.03,305.82L169.1,304.53L169.59,310.1L169.8,303.47L169.87,304.36L170.21,298.74L170.35,308.59L170.56,304.65L170.63,298.64L170.77,309.58L171.39,308.59L171.46,305.02L172.02,309.13L172.09,303.45L172.16,306.74L172.23,303.22L172.3,302.64L172.37,307.67L172.5,304.42L172.57,308.38L172.85,309.68L173.13,299.52L173.34,306.92L173.41,306.67L173.55,308.36L173.62,305.68L173.96,308.51L174.17,298.48L174.31,300.71L174.38,309.04L174.59,299.55L175,309.25L175.14,306.39L175.21,304.97L175.42,301.99L175.84,310.24L175.91,305.47L175.98,304.76L176.53,301.22L176.67,310.05L176.74,305.32L176.81,306.04L177.09,307.45L177.16,304.47L177.37,305.9L177.44,302.24L177.57,310.18L177.99,299.12L178.2,309.77L178.27,303.87L178.75,301.27L178.96,307.91L179.03,302.87L179.24,308.33L179.73,303.77L179.8,303.48L180,299.89L180.28,308.27L180.56,306.94L180.63,308.38L180.77,299.13L180.84,310.41L181.32,303.57L181.39,308.01L182.02,310.19L182.23,301.99L182.3,303.49L183.13,310.4L183.2,307.34L183.55,300.23L183.89,307.88L183.96,307.67L184.17,308.91L184.24,303.01L184.73,303.44L184.8,309.13L185.14,299.03L185.56,306.91L185.63,305.6L185.77,308.83L185.84,303.89L186.19,309.1L186.25,303.68L186.39,305.72L186.46,303.97L186.88,307.14L187.09,305.07L187.16,298.15L187.71,297.97L188.06,309.36L188.13,308.35L188.48,311.25L188.75,293.08L188.89,305.41L188.96,305.39L189.24,311.77L189.38,304.73L189.59,308.55L189.66,299.06L189.73,310.15L190.42,309.24L190.49,302.83L190.56,307.89L190.77,299.5L191.25,307.08L191.32,300.17L191.39,312.08L191.6,296.22L192.02,302.78L192.09,301.85L192.5,309.02L192.71,300.69L192.85,306.54L192.92,308.73L193.69,299.07L193.82,300.31L193.89,310.22L194.17,298.24L194.66,302.09L194.73,307.89L194.8,301.37L195.28,308.62L195.42,305.98L195.49,308.52L195.63,307.32L195.7,295.7L196.05,311.07L196.53,306.19L196.6,308.04L196.88,309.99L197.02,301.97L197.51,302.76L197.57,306.79L197.64,307.85L197.78,301.81L197.85,306.61L197.92,299.98L198.34,309.73L198.41,298.07L198.62,304.46L198.69,300.89L198.82,308.6L199.03,306.12L199.1,299.73L199.24,310.17L199.52,296.92L199.94,307.92L200.01,298.96L200.07,309.02L200.21,297.07L200.77,302.52L200.84,303.6L200.91,310.01L201.39,296.95L201.53,305.72L201.6,303.77L201.88,308.35L202.02,298.24L202.16,307.66L202.23,307L202.3,309.29L202.44,296.05L202.92,306.24L202.99,305.33L203.13,302.35L203.62,308.97L203.69,306.38L203.76,302.33L204.03,309.38L204.52,304.62L204.59,302.57L204.73,298.91L205.07,307.97L205.35,305.95L205.42,304.98L205.63,310.77L205.77,297.11L206.26,308.19L206.32,302.78L206.67,308.06L206.74,302.63L206.81,304.1L206.88,302.32L206.95,299.79L207.02,307.83L207.57,301.22L207.64,308.98L208.2,300.08L208.48,301.35L208.55,305.06L208.69,306.58L208.96,298.52L209.1,303.53L209.17,309.85L209.38,311L209.87,303.53L209.94,304.8L210.01,304.43L210.07,298.23L210.56,308.27L210.7,307.4L210.77,307.72L211.05,310.01L211.53,300.58L211.6,307.49L211.81,301.1L212.23,309.47L212.37,303.43L212.44,307.19L212.51,301L212.78,307.82L213.13,301.74L213.2,307.91L213.41,311.27L213.55,300.22L213.82,302.36L213.89,307.77L214.03,298.21L214.31,302.99L214.38,304.4L214.73,311.25L214.94,302.83L215.07,308.67L215.14,304.64L215.28,302.03L215.7,308.52L215.77,304.11L215.91,308.54L216.32,302.18L216.53,308.15L216.6,303.88L216.67,309.46L217.02,298.63L217.3,305.5L217.37,305.11L217.71,310.84L217.78,301.36L217.99,310.72L218.06,304.36L218.2,304.12L218.48,308.28L218.62,305.95L218.69,303.88L218.76,306.16L219.24,298.19L219.38,305.25L219.45,300.38L220.01,308.29L220.21,307.52L220.28,302.47L220.56,309.34L220.63,301.86L221.05,304.3L221.12,305.42L221.33,303.28L221.74,309.03L221.81,306.59L221.88,304.87L222.16,309.55L222.64,299.28L222.78,300.52L222.85,308.96L223.69,301.74L223.76,301.01L224.03,300.48L224.38,307.36L224.59,305.97L224.66,305.37L225.01,307.44L225.42,301.1L225.49,308.63L225.7,305.74L225.77,303.06L226.12,301.13L226.33,309.65L226.53,307.31L226.6,304.83L226.67,300.67L227.02,310.37L227.23,307.25L227.3,308.56L227.64,310.87L227.92,297.13L227.99,307.23L228.06,299.91L228.34,309.35L228.76,301.94L228.83,302.05L229.31,308.87L229.59,307.89L229.66,307.27L230.35,308.35L230.56,297.55L230.63,306.08L230.7,292.88L230.91,308.71L231.39,299.11L231.46,306.72L231.81,302.66L231.88,308.86L232.09,305.61L232.16,300.07L232.37,309.35L232.51,299.58L232.85,303.91L232.92,298.94L233.2,296.86L233.62,310.03L233.69,306.72L233.76,299.17L234.1,309.42L234.52,303.17L234.59,304.4L234.8,307.81L234.94,305.29L235.01,309.78L235.56,302.2L235.7,303.97L235.77,310.78L236.33,302.05L236.6,303.42L236.67,308.79L237.3,301.64L237.51,305.1L237.58,304.68L238.2,303.31L238.27,309.35L238.48,308.57L238.55,304.09L238.96,309.55L239.17,301.65L239.31,305.83L239.38,304.68L239.52,310.1L239.8,301.97L239.94,308.84L240.01,301.06L240.08,309.88L240.21,297.13L240.7,306.78L240.77,300.61L241.4,310.89L241.6,307.68L241.67,298.86L242.23,307.88L242.44,302.77L242.51,302.51L242.58,309.2L242.71,299.34L243.27,307.17L243.34,304.07L243.62,307.15L243.69,302.17L244.03,304.42L244.1,302.11L244.31,297.01L244.8,308.48L244.87,307.66L244.94,299.26L245.35,310.21L245.77,307.67L245.84,302.66L245.98,298.59L246.26,308.25L246.6,306.95L246.67,304.74L246.81,309.2L247.09,301.68L247.37,305.92L247.44,303.02L247.51,307.77L247.92,300.79L248.2,304.86L248.27,301.27L248.41,310.22L248.48,305.52L248.55,299.19L248.9,308.96L249.45,308.42L249.52,306.13L250.01,311.93L250.08,303.39L250.15,307.37L250.21,297.1L250.28,308.57L250.98,308.03L251.05,309.5L251.19,294.31L251.74,304.49L251.81,309.44L252.23,310.09L252.44,300.55L252.58,303.37L252.65,307.61L252.99,311.41L253.27,302.98L253.41,304.16L253.48,307.38L253.76,307.91L254.1,296.75L254.17,309.02L254.52,299.26L254.73,310.17L255.01,303.04L255.08,309.23L255.21,300.43L255.84,302.74L255.91,310.88L256.4,303.28L256.74,304.96L256.81,305L257.16,309.86L257.44,302.84L257.58,306.98L257.65,307.4L257.92,307.41L258.06,301.43L258.41,301.52L258.48,309.38L259.31,301.38L259.38,302.81L259.45,304.4L259.73,301.11L260.21,308.52L260.28,307.09L260.7,301.42L260.91,308.61L261.05,305.48L261.12,308.39L261.19,297.72L261.53,308.78L261.81,300.46L261.88,310.23L261.95,293.87L262.65,303.59L262.71,309.24L262.78,303.27L262.99,311.05L263.48,305.99L263.55,307.36L263.76,301.11L263.83,304.36L263.9,306.13L264.1,307.65L264.38,298.62L264.45,300.79L264.52,309.81L264.94,295.55L265.35,300.62L265.42,308.45L265.56,297.99L265.63,304.13L265.7,308.57L265.77,299.98L265.91,308.82L266.4,306.82L266.47,308.69L267.16,299.7L267.23,307.88L267.58,299.46L267.72,310.29L267.99,300.46L268.06,309.05L268.27,295.75L268.83,302.27L268.9,305.62L269.03,307.99L269.38,301.16L269.45,307.25L269.94,294.92L270.15,298.86L270.22,307.12L270.42,301.42L270.77,308.38L270.98,305.96L271.05,305.97L271.33,297.16L271.4,313.05L271.88,300.67L271.95,305.52L272.23,301.55L272.44,306.97L272.51,303.82L272.58,296.03L272.85,309.28L273.41,307.42L273.48,305.5L273.62,307.06L273.69,305.69L273.76,293.73L274.24,309.2L274.59,307.19L274.66,304.43L275.28,301.68L275.35,311.47L275.42,305.2L275.49,301.18L276.05,310.08L276.26,305.65L276.33,305.05L276.53,304.3L276.6,308.09L276.67,308.71L277.09,309.31L277.37,297.87L277.44,303.57L277.51,307.18L277.72,302.6L277.99,310.64L278.06,306.56L278.13,304.04L278.2,299.16L278.76,309.48L278.83,307.65L279.17,310.62L279.59,299.28L279.66,305.09L279.8,299.16L280.22,309.67L280.35,299.22L280.42,304.53L280.56,307.85L280.7,301.63L280.84,305.57L280.91,307.56L281.4,308.69L281.47,301.16L281.67,305.25L281.74,305.8L281.95,301.73L282.16,308.76L282.51,306.61L282.58,305.97L282.65,300.48L283.2,310.56L283.27,304.16L283.34,307.38L283.55,294.45L283.76,310.55L284.1,299.88L284.17,302.03L284.24,308.42L284.31,300.93L284.94,305.44L285.01,298.95L285.42,309.9L285.63,284.84L285.77,302.38L285.84,301.97L286.05,300.66L286.54,310.51L286.6,303.39L286.67,305.36L286.95,303.28L287.37,309.56L287.44,303.39L287.58,303.48L287.65,300.9L287.79,298.1L288.06,307.69L288.41,304.9L288.48,303.36L288.83,309.85L289.17,307.65L289.24,302.64L289.8,309.01L290.01,306.49L290.08,306.54L290.42,308.15L290.49,299.07L290.84,300.87L290.91,304.3L291.05,307.74L291.12,300.86L291.4,308.49L291.88,303.55L291.95,302.04L292.09,301.46L292.3,307.82L292.65,304.22L292.72,302.45L293.06,309.8L293.62,308.25L293.69,307.15L294.04,309.47L294.1,297.78L294.52,302.16L294.59,307.76L295.15,300L295.22,308.16L295.35,304.83L295.42,305.07L295.49,295.71L295.77,310.48L296.12,307.92L296.19,302.54L296.26,308.44L296.4,300.61L296.88,301.27L296.95,302.17L297.02,302.32L297.09,305.17L297.37,299.29L297.58,309.66L297.85,307.46L297.92,303.14L298.27,310.48L298.34,300.71L298.69,307.73L298.76,304.05L299.1,297.99L299.24,308.82L299.52,306.68L299.59,304.41L299.73,293.44L300.15,309.52L300.35,306.02L300.42,301.22L300.56,300.06L301.33,310.47L301.4,304.21L301.47,308.9L301.6,302.02L302.16,307.71L302.23,306.64L302.37,308.41L302.65,300.3L302.92,305.34L302.99,309.51L303.13,302.05L303.76,305.75L303.83,306.15L303.97,307.12L304.1,302.67L304.17,300.52L305.01,309.01L305.08,301.87L305.29,301.48L305.91,309.17L305.98,303.63L306.19,302.89L306.6,309.51L306.67,300.36L306.88,295.84L307.3,309.72L307.37,302.95L307.44,299.14L307.86,308.82L308.2,305.94L308.27,301.44L308.55,309.53L308.97,299.96L309.04,303.98L309.11,306.51L309.31,301.49L309.38,307.53L309.45,307.46L309.52,301.63L309.66,307.29L310.01,298.47L310.08,294.08L310.15,308.59L310.84,306.37L310.91,309.73L311.54,310.15L311.67,295.03L311.74,304.47L311.81,303.78L312.02,306.2L312.09,296.1L312.79,308.65L312.86,304.39L312.92,303.36L313.13,309.42L313.27,300.92L313.69,309.13L313.76,305.28L314.11,310.48L314.31,301.86L314.45,306.49L314.52,302.83L314.8,309.19L315.01,302.41L315.29,306.71L315.36,303.11L315.7,309.81L315.84,294.42L316.19,307.42L316.26,303.62L316.4,299.89L316.67,306.46L316.81,304.38L316.88,298.44L317.16,311.65L317.51,307.87L317.58,301.84L317.92,308.55L318.41,307.22L318.48,304.66L319.04,299.04L319.24,309.29L319.31,309.03L319.38,305.29L319.45,307.75L319.73,303.93L319.94,306.1L320.01,298.09L320.91,308.94L320.98,305.14L321.12,301.98L321.19,310.56L321.61,296.58L321.95,303.29L322.02,307.09L322.37,302.02L322.72,308L322.79,304.9L322.86,307.49L323.13,311.13L323.27,304.23L323.41,307.39L323.48,303.29L323.69,300.73L324.04,307.35L324.17,303.31L324.24,303.48L324.31,302.93L324.38,305.73L324.45,309.89L325.08,301.76L325.15,309.2L325.36,297.8L325.56,310.94L325.91,304.37L325.98,306.65L326.26,309.02L326.54,301.83L326.67,303.63L326.74,310.39L327.51,300.9L327.58,306.65L327.99,308.7L328.06,299.63L328.34,300.54L328.41,307.01L328.9,310.55L329.24,297.44L329.31,305.95L329.52,301.83L329.73,309.17L329.8,299.99L330.56,312.81L330.77,311.34L330.84,304.92L330.91,307.99L331.12,300.47L331.54,305.02L331.61,302.02L331.68,301.38L331.74,307.7L331.95,301.47L332.02,308.02L332.58,300.95L332.72,309.16L332.79,309.47L332.86,310.97L332.93,300.97L333.41,307.43L333.48,302.91L333.83,311.45L333.9,299.21L334.11,304.71L334.18,309.38L334.52,295.78L334.8,310.33L335.08,299.75L335.15,304.95L335.29,304.83L335.36,302.9L335.63,309.49L335.7,299L336.12,305.95L336.19,306.24L336.33,308.7L336.54,302L336.68,303.48L336.74,298.28L337.3,309.37L337.58,307.6L337.65,307.81L337.86,311.46L337.93,297.27L338.34,309.17L338.41,307.37L338.83,297.75L339.11,308.91L339.18,307.45L339.24,309.02L339.59,299.18L339.8,308.78L339.87,305.81L340.15,302.63L340.36,308.82L340.43,302.41L340.84,309.02L340.98,301.31L341.19,305.35L341.26,305.78L341.54,308.05L341.74,299.27L342.09,301.83L342.16,308.04L342.37,308.75L342.44,301.43L342.86,301.89L342.93,308.7L343.13,298.42L343.34,309.42L343.69,304L343.76,306.65L343.97,302.21L344.38,308.53L344.52,305.56L344.59,305.56L344.73,307.8L345.29,299.55L345.36,306.29L345.43,306.99L345.7,302.32L345.77,306.89L345.84,303.12L346.12,306.98L346.4,299.2L346.54,305.73L346.61,303.57L346.88,310.68L347.16,302.51L347.3,307.94L347.37,301.19L347.79,310.11L347.86,299.8L348.13,303.91L348.2,301.32L348.55,300.2L348.62,309.48L348.76,307.39L348.83,301.62L349.38,307.9L349.59,303.56L349.66,304.26L349.73,303.6L349.8,307.18L349.87,310.17L350.15,295.05L350.49,305.23L350.56,312.92L350.7,302.81L351.33,302.95L351.4,307.94L351.68,309.88L351.75,292.5L352.16,304.71L352.23,306L352.37,303.19L352.44,303.82L352.51,300.03L353.34,307.36L353.41,305.64L353.83,301.59L353.9,308.41L354.04,304.77L354.11,306.9L354.18,299.82L354.8,309.67L354.87,306.58L355.01,310.5L355.5,301.06L355.7,302.89L355.77,305.32L355.91,309.74L356.19,298.73L356.4,305.42L356.47,307.72L356.54,311.39L356.75,297.52L357.16,308.44L357.23,307.22L357.44,310.32L357.58,303.49L357.86,309.55L357.93,309.85L358.27,294.25L358.76,304.02L358.83,308.04L359.04,299.22L359.38,304.52L359.45,308.89L359.52,309.65L359.59,301.99L359.94,299.97L360.22,309.93L360.36,305.36L360.43,306.27L360.5,309.03L360.7,304.23L361.12,307.65L361.19,303.77L361.33,311.7L361.47,303.29L361.68,304.19L361.75,297.84L361.88,308.22L362.51,302.92L362.58,308.7L362.93,310.66L363.27,299.81L363.41,301.27L363.48,305.86L363.55,302.83L363.97,310.29L364.18,303.13L364.25,305.85L364.45,302.21L364.73,309.34L364.94,303.62L365.01,307.81L365.08,307.25L365.15,296.62L365.5,310.47L365.56,295.03L365.91,308.14L365.98,301.76L366.19,308.09L366.68,307.59L366.75,298.49L367.09,309.53L367.51,306.02L367.58,297.65L367.65,309.02L368.34,304.93L368.41,305.55L368.48,301.64L368.69,309.98L369.11,307.09L369.18,308.94L369.45,309.18L369.52,302.54L369.87,304.51L369.94,311.21L370.36,312.6L370.56,297.84L370.7,308.44L370.77,307.53L370.98,300.92L371.19,307.89L371.4,306.6L371.47,308.6L371.95,308.85L372.16,298.47L372.3,303.89L372.37,307.8L372.44,294.14L373.07,304.78L373.13,307.21L373.34,307.64L373.41,300.09L373.83,307.57L373.9,307.57L374.04,310.89L374.32,302.74L374.66,302.76L374.73,308.37L374.8,308.08L374.87,302L375.5,308.48L375.63,307.98L375.7,301.02L376.33,309.9L376.4,305.78L376.47,302.21L376.54,308.4L377.23,303.63L377.3,302.57L378.07,307.58L378.13,306.78L378.2,302.84L378.83,310.15L378.97,308.87L379.04,307.62L379.11,308.09L379.18,306.95L379.25,303.49L379.45,298.38L379.52,308.25L379.87,303.53L379.94,300.83L380.29,310.31L380.77,305.42L380.84,301.75L381.4,310.88L381.61,303.68L381.68,298.63L381.82,307.92L382.16,297.66L382.44,304.1L382.51,305.36L382.65,297.3L382.93,308.44L383.2,302.01L383.27,308.48L383.34,311.11L383.48,301.11L383.9,309.04L383.97,300.39L384.32,308.92L384.66,299.86L384.73,303.87L384.8,300.41L384.87,312.09L385.57,307.88L385.63,304.32L385.7,308.44L385.91,301.5L386.33,305.22L386.4,305.19L386.61,306.73L386.75,300.77L387.02,305.2L387.09,301.46L387.16,301.28L387.23,306.95L387.44,308.47L387.72,302.53L387.93,305.42L388,307.99L388.07,297.45L388.69,303.74L388.76,308.42L388.83,308.78L388.9,304.99L389.04,300.69L389.11,308.83L389.52,304.84L389.59,308.75L390.08,302.06L390.43,302.46L390.5,310.76L390.77,302.04L391.19,303.75L391.26,310.4L391.61,301.88L392.02,305.34L392.09,306.61L392.65,298.49L392.79,307.41L392.86,306.17L392.93,310.23L393.2,300.85L393.55,304.54L393.62,303.1L393.83,308.52L394.11,302.02L394.18,302.94L394.25,302.34L394.32,308.68L394.8,300.41L395.01,306.43L395.08,304.05L395.15,303.67L395.22,307.51L395.77,310.25L395.91,301.26L395.98,308.38L396.05,308.58L396.12,306.46L396.33,304.95L396.4,307.58L396.47,305.59L396.54,308.61L396.61,303.36L396.75,310.88L397.3,306.15L397.37,309.01L397.72,309.03L397.79,296.44L398.14,300.79L398.2,307.98L398.62,304.21L398.69,308.2L398.76,308.1L398.83,310.21L398.9,301.77L399.59,307.16L399.66,306.01L399.8,304.65L399.87,301.35L399.94,301.55L400.01,307.49L400.15,303.51L400.64,309.6L400.7,306.34L400.77,304.39L400.84,308.68L401.4,300.92L401.54,307.72L401.61,309.75L402.37,301.66L402.44,305.41L402.72,297.2L403.07,310.46L403.2,306.86L403.27,307.1L403.41,295.73L403.48,309.09L403.97,304.24L404.04,307.14L404.52,302.62L404.59,308.82L404.73,304.46L404.8,307.03L404.94,302.65L405.01,308.23L405.57,304.79L405.64,306.51L406.05,298.72L406.19,310.69L406.33,307.49L406.4,306.23L406.47,307.9L406.75,302.83L406.89,302.85L406.95,300.48L407.16,298.26L407.3,309.45L407.72,306.79L407.79,306.72L407.93,309.04L408,304.49L408.14,306.94L408.2,295.37L408.27,310.26L408.97,303.2L409.04,305.53L409.39,310.24L409.45,294.48L409.73,307.92L409.8,305.31L410.15,299.84L410.29,308.39L410.57,301.76L410.64,301.93L410.7,298.89L410.98,309.08L411.26,301.57L411.33,307.27L411.4,307.67L411.47,303.22L411.54,309.06L412.09,301.4L412.23,307.55L412.3,307.65L412.72,308.53L413,302.53L413.07,307.43L413.2,303.35L413.34,309.88L413.76,307.51L413.83,302.09L414.11,300.43L414.52,308.75L414.59,302.21L414.8,308.39L414.87,305.39L414.94,302.06L415.36,309.32L415.57,299.69L415.64,300.35L415.7,301.59L415.98,301.16L416.33,310.19L416.47,307.9L416.54,303.57L416.82,302.32L417.09,309.19L417.16,308.71L417.23,303.65L417.37,308.7L417.44,300.29L417.93,305.14L418,301.31L418.55,310.39L418.62,298.88L418.9,310.4L419.18,298.1L419.32,307.52L419.39,299.78L419.8,309.4L420.22,306.9L420.29,309.39L421.05,298.44L421.12,305.55L421.19,299.21L421.82,309.98L421.89,307.65L422.09,289.78L422.3,308.22L422.58,304.15L422.65,308.87L423.41,300.57L423.48,309.2L423.9,309.27L424.18,297.34L424.25,300.42L424.32,307.03L424.46,305.41L424.87,309.04L424.94,307.77L425.01,298.77L425.08,309.64L425.15,296.82L425.77,309.32L425.84,307.64L425.91,302.42L426.33,310.15L426.61,303.35L426.68,305.35L427.09,308.18L427.23,297.64L427.3,305.53L427.37,306.68L427.51,303.64L427.65,304.81L427.72,307.57L428.48,300.39L428.55,308.29L429.25,299.69L429.32,309.8L429.87,298.2L430.01,302.71L430.08,309.99L430.84,301.3L430.91,306.52L430.98,301.52L431.05,309.58L431.61,303.35L431.68,308.28L431.75,308.03L431.82,303.99L432.02,308.07L432.3,301.32L432.58,305.25L432.65,305.95L433,308.81L433.27,301.18L433.34,307.81L433.48,304.06L433.62,308.55L433.76,308.38L433.83,302.37L434.04,310.99L434.32,298.33L434.39,306.01L434.46,310.2L434.94,294.91L435.29,303.95L435.36,307.96L435.64,298.5L435.98,310.22L436.12,303.6L436.19,309.22L436.4,301.68L436.89,303.69L436.96,307.6L437.23,308.43L437.51,298.97L437.65,299.35L437.72,307.7L437.86,301.69L438.48,306.95L438.55,307.5L438.76,308.27L438.9,301.57L439.25,308.21L439.32,309.79L440.08,299.86L440.15,305.79L440.71,310.39L440.84,290.87L440.91,307.87L441.33,300.13L441.61,310.03L441.68,304.45L441.75,309.02L442.3,302.73L442.37,309.4L442.51,307.02L442.58,308.7L443.14,299.44L443.21,308.76L443.41,301.96L443.48,305.25L443.69,302.79L443.76,303.13L443.83,310.9L444.53,300.87L444.59,303.56L444.66,304.17L445.01,303.45L445.36,309.97L445.5,307.21L445.57,303.48L445.91,310.12L446.19,303.83L446.26,302.81L446.54,309.33L446.89,304.52L446.96,301.19L447.44,308.16L447.72,305.86L447.79,306.48L447.86,310.7L448.21,300.52L448.34,306.67L448.41,297.53L449.32,310.33L449.39,305.26L449.46,300.89L449.53,308.91L450.15,303.93L450.22,308.55L450.29,300L450.5,308.87L450.91,304.76L450.98,308.12L451.47,308.54L451.61,301.71L451.68,301.84L451.75,308.34L451.82,309.6L452.09,301.95L452.3,308.24L452.37,303.42L452.51,297.11L452.72,307.53L453.14,307.43L453.21,304.88L453.62,307.88L453.69,300.66L453.76,306.44L453.9,309.95L454.46,300.9L454.53,305.94L454.8,300.8L454.94,308.04L455.29,306.95L455.36,306.5L455.5,307.98L455.84,305.24L455.91,306.06L455.98,308.43L456.05,299.44L456.19,309.38L456.75,303.63L456.82,302.08L457.37,309.15L457.58,306.69L457.65,301.23L458.21,307.07L458.48,306.82L458.55,305.17L458.62,309.58L458.83,302.39L459.32,307.11L459.39,301.21L459.87,307.99L460.22,305.94L460.29,305.5L460.5,302.18L460.85,309.08L460.98,306.93L461.05,305.95L461.26,308.29L461.33,306.65L461.4,303.44L461.47,306.18L461.75,298.86L462.03,305.49L462.1,298.41L462.23,295.18L462.86,309.4L462.93,308.24L463,307.69L463.21,308.56L463.28,302.66L463.48,305.33L463.55,291.18L463.62,309.39L464.32,306.41L464.39,306.91L464.53,303.63L464.66,308.83L464.8,306.77L464.87,308.9L465.71,299.66L465.78,306.86L466.05,308.78L466.47,300.07L466.54,302.36L466.61,307.07L467.03,307.89L467.51,296.84L467.58,305.37L467.79,300.02L467.86,309.9L468.28,308.99L468.35,297.84L468.76,310.12L469.11,308.19L469.18,304.67L469.25,308.47L469.66,298.39L469.87,302.88L469.94,303.18L470.01,307.52L470.64,301.36L470.71,301.25L470.78,309.37L471.47,304.68L471.54,305.34L471.96,309.92L472.1,302.02L472.23,304.58L472.3,304.25L472.58,308.72L472.93,306.65L473,300.63L473.35,309.67L473.76,303.15L473.83,304.76L473.9,299.96L474.39,309.31L474.6,301.11L474.66,307.94L475.08,309.94L475.43,300.81L475.5,307.57L475.78,310.43L476.19,298.64L476.26,306.04L476.33,307.99L476.89,308.58L477.03,300.89L477.1,307.54L477.23,302.03L477.72,308.41L477.79,306.21L477.86,305.45L478.21,302.85L478.69,309.64L478.76,305.01L478.9,304.96L478.97,306.96L479.04,298.45L479.73,308.92L479.87,306.36L479.94,305.75L480.01,301.84L480.64,307.12L480.71,306L480.98,298.89L481.33,308.74L481.4,306.45L481.47,306.86L481.54,308.14L481.75,304.47L481.96,308.09L482.03,303.22L482.16,298.53L482.65,308.86L482.93,308.05L483,303.57L483.07,302.93L483.21,307.79L483.28,299.95L483.9,296.24L484.04,309.8L484.11,302.7L484.67,301.24L484.87,309.21L484.94,308.57L485.29,308.81L485.57,299.5L485.71,303.43L485.78,306.75L486.05,310.79L486.19,301.66L486.47,304.7L486.54,305.23L486.75,309.12L487.03,293.93L487.3,306.97L487.37,303.7L487.51,301.68L488,307.57L488.07,297.5L488.28,310.81L488.83,308.68L488.9,298.47L489.46,309.86L489.73,308.92L489.8,307.64L490.01,300.67L490.15,309.57L490.57,301.05L490.64,305.64L490.92,301.32L491.33,309.4L491.4,306.98L491.47,304.78L491.61,303.48L492.23,309.09L492.3,304.7L492.72,303.01L492.79,311.52L492.93,305.69L493,301.72L493.83,309.41L493.9,305.33L494.04,307.41L494.18,303.14L494.25,303.85L494.32,302.6L494.8,310.55L494.94,295.54L495.15,309.59L495.22,305.2L495.64,310.89L495.71,299.23L495.85,304.71L495.92,308.42L496.12,312.35L496.19,298.93L496.54,307.35L496.61,307.7L496.82,309.52L497.03,300.61L497.37,307.12L497.44,303.96L497.79,310.39L498.07,302.78L498.21,308.02L498.28,304.37L498.42,300.87L499.11,308.22L499.18,304.4L499.53,302.48L499.73,310.16L499.94,308.24L500.01,303.71L500.43,301.16L500.71,309.03L500.78,304.61L500.92,299.97L501.54,310.71L501.61,305.05L501.96,302.85L502.23,310.63L502.3,300.81L502.93,308.83L503.07,308.32L503.14,299.9L503.42,310.71L503.55,298.91L503.9,305.32L503.97,305.19L504.18,310.01L504.25,302.56L504.74,306.76L504.8,298.12L504.94,307.44L505.57,306.03L505.64,307.43L505.92,307.83L506.33,303L506.4,305.35L506.47,308.21L506.61,303.67L507.24,305.73L507.3,306.32L507.44,305.5L507.58,309.61L507.65,294.15L508,308.18L508.42,303.76L508.49,306.16L508.9,307.03L508.97,302.35L509.25,305.19L509.32,307.28L509.46,307.77L510.01,292.41L510.08,308.13L510.43,300.18L510.5,310.12L510.85,301.28L510.92,306.5L511.12,300.91L511.68,310.33L511.75,304.35L512.1,301.97L512.24,308.85L512.37,303.54L512.44,298.54L513.14,308.59L513.28,307.91L513.35,305.71L513.49,301.51L513.83,306.5L513.97,305.18L514.04,307.57L514.11,297.46L514.32,311.35L514.8,304.99L514.87,307.38L515.29,310.2L515.36,303.86L515.43,306.74L515.5,302.33L515.57,302.16L515.64,305.34L515.99,309.46L516.05,299.21L516.33,307.11L516.4,305.14L516.68,308.86L516.82,303.78L517.17,306.04L517.24,305.63L517.3,305.91L517.37,302.23L517.86,308.32L518,297.43L518.07,305.9L518.14,299.1L518.62,297.72L518.83,310.04L518.9,298.87L519.74,308.53L519.8,304.5L519.87,303.78L520.01,307.74L520.08,299.05L520.85,311.47L520.99,308.15L521.05,303.94L521.12,303.22L521.19,307.66L521.47,305.2L521.54,308.89L521.61,308.7L521.68,297.88L521.96,308.06L522.17,296.73L522.44,305.81L522.51,304.38L522.86,309.24L523,301.59L523.07,301.6L523.14,306.35L523.55,301.33L523.83,304.09L523.9,306.65L524.04,301.75L524.25,306.73L524.39,305.29L524.46,309.22L525.08,297.52L525.22,306.97L525.29,304.22L525.5,301.12L525.57,308.59L525.78,304.15L525.85,298.44L526.68,311.26L526.75,305.32L526.89,296.02L527.17,308.85L527.24,302.44L527.31,306.3L527.58,300.07L527.65,304.75L527.72,306.63L528,308.87L528.28,299.94L528.42,307L528.49,307.32L528.76,297.47L528.97,307.75L529.18,305.75L529.25,308.32L529.6,298.8L530.08,299.64L530.15,306.47L530.29,301.84L530.57,308.15L530.71,304.95L530.78,301.65L531.06,301.25L531.26,309.87L531.54,303.45L531.61,305.45L531.75,309.52L531.82,304.14L531.89,309.13L531.96,309.87L532.37,310.47L532.44,297.22L532.65,307.96L532.72,310.03L533.56,298.8L533.62,306.02L533.9,309.54L534.18,303.02L534.32,306.52L534.39,307.32L534.46,301.2L534.87,308.77L535.15,302.42L535.22,306.16L535.43,309.6L535.5,298.17L535.64,307.38L535.71,307.34L535.78,307.16L535.85,301.93L535.92,295.6L536.4,308.78L536.47,304.33L536.54,309.98L536.96,303.64L537.24,309.02L537.31,308.5L537.65,309.48L538,301.02L538.14,301.05L538.21,309.93L538.62,299.99L539.04,301.75L539.11,306.26L539.39,299.99L539.6,308.41L539.67,309.57L540.29,311.09L540.36,300.18L540.5,301.32L540.57,307.54L540.64,309.67L540.92,303.22L541.26,305.75L541.33,306.23L541.47,310.83L542.03,299.16L542.1,308.15L542.58,308.65L542.86,302.49L542.93,305.51L543.14,310.95L543.56,302.04L543.62,307.02L543.69,301.86L543.76,301.52L543.83,309.85L544.18,300.51L544.39,302.61L544.46,306.64L544.74,309.41L545.08,301.46L545.15,309.38L545.36,297.47L545.78,310.72L545.92,301.39L545.99,302.04L546.19,294.72L546.61,305.81L546.68,298.38L547.44,310.13L547.51,307.11L547.58,301.3L547.72,309.16L548,307.44"/></g><g class="points"/><g class="text"/></g></g></g><g class="overplot"/><path class="xlines-above crisp" style="fill: none;" d="M0,0"/><path class="ylines-above crisp" style="fill: none;" d="M0,0"/><g class="overlines-above"/><g class="xaxislayer-above"><g class="xtick"><text text-anchor="middle" x="0" y="403" style="font-family: TOBESTRIPPEDOpen SansTOBESTRIPPED, verdana, arial, sans-serif; font-size: 12px; fill: rgb(68, 68, 68); fill-opacity: 1; white-space: pre;" transform="translate(60,0)">0</text></g><g class="xtick"><text text-anchor="middle" x="0" y="403" style="font-family: TOBESTRIPPEDOpen SansTOBESTRIPPED, verdana, arial, sans-serif; font-size: 12px; fill: rgb(68, 68, 68); fill-opacity: 1; white-space: pre;" transform="translate(233.62,0)">50k</text></g><g class="xtick"><text text-anchor="middle" x="0" y="403" style="font-family: TOBESTRIPPEDOpen SansTOBESTRIPPED, verdana, arial, sans-serif; font-size: 12px; fill: rgb(68, 68, 68); fill-opacity: 1; white-space: pre;" transform="translate(407.23,0)">100k</text></g><g class="xtick"><text text-anchor="middle" x="0" y="403" style="font-family: TOBESTRIPPEDOpen SansTOBESTRIPPED, verdana, arial, sans-serif; font-size: 12px; fill: rgb(68, 68, 68); fill-opacity: 1; white-space: pre;" transform="translate(580.85,0)">150k</text></g></g><g class="yaxislayer-above"><g class="ytick"><text text-anchor="end" x="59" y="4.199999999999999" style="font-family: TOBESTRIPPEDOpen SansTOBESTRIPPED, verdana, arial, sans-serif; font-size: 12px; fill: rgb(68, 68, 68); fill-opacity: 1; white-space: pre;" transform="translate(0,382.99)">1</text></g><g class="ytick"><text text-anchor="end" x="59" y="4.199999999999999" style="font-family: TOBESTRIPPEDOpen SansTOBESTRIPPED, verdana, arial, sans-serif; font-size: 12px; fill: rgb(68, 68, 68); fill-opacity: 1; white-space: pre;" transform="translate(0,320.62)">2</text></g><g class="ytick"><text text-anchor="end" x="59" y="4.199999999999999" style="font-family: TOBESTRIPPEDOpen SansTOBESTRIPPED, verdana, arial, sans-serif; font-size: 12px; fill: rgb(68, 68, 68); fill-opacity: 1; white-space: pre;" transform="translate(0,258.26)">3</text></g><g class="ytick"><text text-anchor="end" x="59" y="4.199999999999999" style="font-family: TOBESTRIPPEDOpen SansTOBESTRIPPED, verdana, arial, sans-serif; font-size: 12px; fill: rgb(68, 68, 68); fill-opacity: 1; white-space: pre;" transform="translate(0,195.89)">4</text></g><g class="ytick"><text text-anchor="end" x="59" y="4.199999999999999" style="font-family: TOBESTRIPPEDOpen SansTOBESTRIPPED, verdana, arial, sans-serif; font-size: 12px; fill: rgb(68, 68, 68); fill-opacity: 1; white-space: pre;" transform="translate(0,133.53)">5</text></g><g class="ytick"><text text-anchor="end" x="59" y="4.199999999999999" style="font-family: TOBESTRIPPEDOpen SansTOBESTRIPPED, verdana, arial, sans-serif; font-size: 12px; fill: rgb(68, 68, 68); fill-opacity: 1; white-space: pre;" transform="translate(0,71.16)">6</text></g></g><g class="overaxes-above"/></g></g><g class="polarlayer"/><g class="ternarylayer"/><g class="geolayer"/><g class="pielayer"/><g class="glimages"/><defs id="topdefs-32b847"><g class="clips"/><clipPath id="legend32b847"><rect width="69" height="29" x="0" y="0"/></clipPath></defs><g class="layer-above"><g class="imagelayer"/><g class="shapelayer"/></g><g class="infolayer"><g class="legend" pointer-events="all" transform="translate(618.96, 60)"><rect class="bg" shape-rendering="crispEdges" style="stroke: rgb(68, 68, 68); stroke-opacity: 1; fill: rgb(255, 255, 255); fill-opacity: 1; stroke-width: 0px;" width="69" height="29" x="0" y="0"/><g class="scrollbox" transform="translate(0, 0)" clip-path="url(#legend32b847)"><g class="groups"><g class="traces" style="opacity: 1;" transform="translate(0, 14.5)"><g class="layers" style="opacity: 1;"><g class="legendfill"/><g class="legendlines"><path class="js-line" d="M5,0h30" style="fill: none; stroke: rgb(31, 119, 180); stroke-opacity: 1; stroke-width: 2px;"/></g><g class="legendsymbols"><g class="legendpoints"/></g></g><text class="legendtext user-select-none" text-anchor="start" style="font-family: TOBESTRIPPEDOpen SansTOBESTRIPPED, verdana, arial, sans-serif; font-size: 12px; fill: rgb(68, 68, 68); fill-opacity: 1; white-space: pre;" x="40" y="4.680000000000001">loss</text><rect class="legendtoggle" style="cursor: pointer; fill: rgb(0, 0, 0); fill-opacity: 0;" pointer-events="all" x="0" y="-9.5" width="109" height="19"/></g></g></g><rect class="scrollbar" rx="20" ry="3" width="0" height="0" style="fill: rgb(128, 139, 164); fill-opacity: 1;" x="0" y="0"/></g><g class="g-gtitle"><text class="gtitle" style="font-family: TOBESTRIPPEDOpen SansTOBESTRIPPED, verdana, arial, sans-serif; font-size: 17px; fill: rgb(68, 68, 68); opacity: 1; font-weight: normal; white-space: pre;" x="350" y="30" text-anchor="middle" dy="0em">DeepFusion_Trancated   totalloss_train</text></g><g class="g-xtitle"><text class="xtitle" style="font-family: TOBESTRIPPEDOpen SansTOBESTRIPPED, verdana, arial, sans-serif; font-size: 14px; fill: rgb(68, 68, 68); opacity: 1; font-weight: normal; white-space: pre;" x="334" y="442" text-anchor="middle">iteration</text></g><g class="g-ytitle"><text class="ytitle" transform="rotate(-90,22,225)" style="font-family: TOBESTRIPPEDOpen SansTOBESTRIPPED, verdana, arial, sans-serif; font-size: 14px; fill: rgb(68, 68, 68); opacity: 1; font-weight: normal; white-space: pre;" x="22" y="225" text-anchor="middle">loss</text></g></g></svg>